<svg width="20" height="20" viewBox="0 0 20 20" fill="none" xmlns="http://www.w3.org/2000/svg">
<path d="M8.88889 0H20V20H0V8.42105C0 6.18765 0.936505 4.04572 2.6035 2.46647C4.27049 0.887216 6.53141 0 8.88889 0V0Z" fill="#B0B0B0"/>
<path d="M14.289 8.92647H11.0739V5.71095C11.0739 5.52239 10.999 5.34156 10.8657 5.20823C10.7324 5.0749 10.5515 5 10.363 5H9.65214C9.4636 5 9.28279 5.0749 9.14948 5.20823C9.01616 5.34156 8.94127 5.52239 8.94127 5.71095V8.92647H5.71087C5.52234 8.92647 5.34152 9.00137 5.20821 9.1347C5.0749 9.26803 5 9.44886 5 9.63742V10.3484C5 10.5369 5.0749 10.7178 5.20821 10.8511C5.34152 10.9844 5.52234 11.0593 5.71087 11.0593H8.9301V14.2891C8.9301 14.4776 9.00499 14.6584 9.13831 14.7918C9.27162 14.9251 9.45243 15 9.64097 15H10.3518C10.5404 15 10.7212 14.9251 10.8545 14.7918C10.9878 14.6584 11.0627 14.4776 11.0627 14.2891V11.0705H14.289C14.4776 11.0705 14.6584 10.9956 14.7917 10.8623C14.925 10.7289 14.9999 10.5481 14.9999 10.3595V9.64859C15.0014 9.55429 14.9841 9.46064 14.949 9.37309C14.914 9.28554 14.8619 9.20584 14.7957 9.13863C14.7295 9.07143 14.6507 9.01806 14.5637 8.98163C14.4767 8.94521 14.3833 8.92646 14.289 8.92647Z" fill="white"/>
</svg>
