<svg width="53" height="101" viewBox="0 0 53 101" fill="none" xmlns="http://www.w3.org/2000/svg">
<path d="M17.9101 99.306V96.204L12.2711 96.1641L12.2232 100.855L12.5727 100.881C14.1287 100.979 20.4886 101.124 21.5333 100.804C22.6957 100.449 17.9101 99.306 17.9101 99.306Z" fill="#55AB60"/>
<path d="M21.6659 100.515C21.6659 100.566 19.5545 100.61 16.9539 100.61C14.3532 100.61 12.2418 100.566 12.2418 100.515C12.2418 100.464 14.3532 100.42 16.9539 100.42C19.5545 100.42 21.6659 100.464 21.6659 100.515Z" fill="#263238"/>
<path d="M18.0097 99.9409C17.9619 99.9155 18.0097 99.7523 18.1237 99.5781C18.2378 99.4039 18.3923 99.3313 18.429 99.3676C18.4658 99.4039 18.3886 99.5418 18.2782 99.6906C18.1679 99.8393 18.0575 99.9663 18.0097 99.9409Z" fill="#263238"/>
<path d="M18.3701 100.144C18.3186 100.144 18.3444 99.941 18.4547 99.7487C18.5651 99.5563 18.7122 99.4402 18.7527 99.4693C18.7931 99.4983 18.7269 99.6616 18.6239 99.8321C18.5209 100.003 18.4179 100.162 18.3701 100.144Z" fill="#263238"/>
<path d="M13.9413 100.5C13.9192 100.5 13.8346 100.435 13.7132 100.297C13.565 100.12 13.4 99.9567 13.2203 99.8105C13.0436 99.6713 12.8331 99.58 12.6097 99.5456C12.4368 99.5239 12.3265 99.5456 12.3154 99.5239C12.3044 99.5021 12.4111 99.4259 12.6134 99.4114C12.8804 99.4058 13.1408 99.4932 13.349 99.6581C13.5441 99.815 13.7087 100.006 13.8346 100.221C13.9192 100.38 13.9633 100.485 13.9413 100.5Z" fill="#263238"/>
<path d="M18.0282 99.3569C18.054 99.4006 17.9583 99.5099 17.7965 99.5682C17.6346 99.6264 17.4912 99.6046 17.4838 99.5682C17.4765 99.5317 17.5905 99.4553 17.7303 99.4043C17.8701 99.3533 17.9988 99.3132 18.0282 99.3569Z" fill="#263238"/>
<path d="M17.94 99.0566C17.94 99.1115 17.7928 99.1555 17.6016 99.1592C17.4103 99.1628 17.2595 99.1189 17.2631 99.0676C17.2668 99.0163 17.4176 98.9687 17.6016 98.965C17.7855 98.9613 17.9326 99.0053 17.94 99.0566Z" fill="#263238"/>
<path d="M31.7965 99.306V96.204L26.1575 96.1641L26.1097 100.808L26.4591 100.833C28.0151 100.931 34.3787 101.124 35.4197 100.804C36.5821 100.449 31.7965 99.306 31.7965 99.306Z" fill="#55AB60"/>
<path d="M35.5521 100.522C35.5521 100.574 33.4443 100.618 30.84 100.618C28.2357 100.618 26.1316 100.574 26.1316 100.522C26.1316 100.471 28.2394 100.427 30.84 100.427C33.4406 100.427 35.5521 100.471 35.5521 100.522Z" fill="#263238"/>
<path d="M31.8955 99.9409C31.8514 99.9155 31.8955 99.7523 32.0096 99.5781C32.1236 99.4039 32.2781 99.3313 32.3149 99.3676C32.3516 99.4039 32.2744 99.5418 32.164 99.6906C32.0537 99.8393 31.9433 99.9663 31.8955 99.9409Z" fill="#263238"/>
<path d="M32.2562 100.144C32.2084 100.144 32.2305 99.941 32.3445 99.7487C32.4586 99.5563 32.602 99.4402 32.6425 99.4693C32.6829 99.4983 32.6131 99.6616 32.5101 99.8321C32.4071 100.003 32.3077 100.162 32.2562 100.144Z" fill="#263238"/>
<path d="M27.8272 100.5C27.8051 100.5 27.7242 100.435 27.5991 100.297C27.451 100.12 27.2859 99.9567 27.1062 99.8105C26.9295 99.6713 26.7191 99.58 26.4956 99.5456C26.3264 99.5239 26.2124 99.5456 26.2013 99.5239C26.1903 99.5021 26.297 99.4259 26.4993 99.4114C26.7663 99.4058 27.0267 99.4932 27.235 99.6581C27.4311 99.814 27.5958 100.005 27.7205 100.221C27.8051 100.38 27.8493 100.485 27.8272 100.5Z" fill="#263238"/>
<path d="M31.9137 99.3569C31.9394 99.4006 31.8438 99.5099 31.6819 99.5682C31.5201 99.6264 31.3766 99.6046 31.3693 99.5682C31.3619 99.5317 31.4759 99.4553 31.6157 99.4043C31.7555 99.3533 31.8842 99.3132 31.9137 99.3569Z" fill="#263238"/>
<path d="M31.833 99.0566C31.833 99.1115 31.6858 99.1555 31.4945 99.1592C31.3033 99.1628 31.1561 99.1189 31.1598 99.0676C31.1635 99.0163 31.3106 98.9687 31.4945 98.965C31.6785 98.9613 31.833 99.0053 31.833 99.0566Z" fill="#263238"/>
<path d="M52.5719 7.18905C52.4247 7.0403 52.0606 7.11286 52.0606 7.11286C52.0971 6.90397 52.0971 6.69046 52.0606 6.48157C51.9943 6.2784 51.5309 6.31831 51.5309 6.31831C51.5095 6.14722 51.5095 5.9742 51.5309 5.80312C51.5346 5.7652 51.5263 5.72708 51.5072 5.69396C51.4881 5.66084 51.4591 5.63435 51.4242 5.61809C51.2049 5.5299 50.9694 5.48788 50.7327 5.49474C50.4494 5.29519 51.5971 3.70972 52.0238 3.20178C52.4505 2.69385 52.3732 2.2984 51.9944 2.2984C51.7332 2.2984 50.3942 3.82219 49.9823 4.33375C49.5703 4.84531 48.4778 6.26752 48.441 5.13193C48.4042 3.99634 47.9407 3.14011 47.6501 2.99499C47.3596 2.84986 47.0506 3.1909 47.2087 3.50654C47.3477 3.86514 47.4344 4.24137 47.4662 4.62399C47.5062 4.92878 47.4925 5.23808 47.4258 5.53827C47.3038 6.09683 47.1378 6.64513 46.9292 7.17817H46.8998C46.8998 7.17817 38.8735 14.7717 38.2923 15.3123C37.7736 15.7985 27.3416 14.7355 25.2486 14.5178C24.5374 14.4151 23.8192 14.3666 23.1004 14.3727C22.1919 14.4126 22.03 14.5395 21.1251 14.5504C18.8399 14.5755 16.56 14.7732 14.3053 15.1418C13.2844 15.313 12.3308 15.7574 11.5485 16.4267C10.7663 17.0959 10.1853 17.9642 9.86917 18.9368C7.76144 25.4311 2.98686 40.8032 2.14451 49.4381C1.50798 50.5766 0.933338 51.7477 0.423014 52.9464C-0.16921 54.5355 -0.0257521 54.59 0.172882 54.6262C0.70993 54.7242 1.32055 51.8725 1.54861 52.5619C1.77667 53.2512 0.389909 55.9614 0.952707 56.0412C1.68839 56.1428 2.27326 53.1387 2.34315 52.8993C2.41304 52.6598 2.7772 52.736 2.71099 52.9609C2.60431 53.2802 1.57068 56.6652 2.29165 56.7741C2.68892 56.8321 2.73306 56.1174 2.73306 56.1174C2.73306 56.1174 3.46874 52.8775 3.80348 52.9428C4.13821 53.0081 3.7814 54.9201 3.6122 55.5586C3.44299 56.1972 3.67841 56.5201 4.02418 56.3641C4.2596 56.2552 4.8224 54.3142 4.97689 53.6829C5.13138 53.0516 5.51761 51.3029 6.03627 52.3151C6.55493 53.3274 7.34211 53.9151 7.66581 53.9296C7.73875 53.9213 7.8075 53.8917 7.86322 53.8445C7.91894 53.7974 7.95908 53.7349 7.97846 53.665C7.99785 53.5952 7.9956 53.5212 7.972 53.4526C7.94841 53.384 7.90454 53.324 7.84605 53.2802C7.56763 53.012 7.32867 52.7067 7.13612 52.3732C6.96452 52.1134 6.84005 51.8261 6.76828 51.5242C6.62004 50.9224 6.53378 50.3073 6.51079 49.6884L6.45193 49.3256C7.2759 45.3021 9.64847 33.4926 13.0731 25.9499L14.4782 28.8015L15.0888 30.9131L11.3442 40.0304L27.3159 39.8237L24.9323 30.7752L27.8272 21.3422C30.9575 21.4111 38.9948 21.5272 40.3338 20.9286C42.0185 20.203 50.7327 9.34776 50.7327 9.34776C51.3007 8.91242 51.8446 8.44736 52.3622 7.95457C52.3622 7.95457 52.8919 7.51558 52.5719 7.18905Z" fill="#FFBE9D"/>
<path d="M10.6416 33.2932C11.105 31.7331 13.485 24.0198 13.485 24.0198C13.485 24.0198 14.6547 30.3073 14.3457 31.0656C14.0615 31.7147 13.7257 32.3407 13.3415 32.9376C10.6416 36.9902 10.9947 39.0183 10.9947 39.0183L27.3084 38.5285C27.3452 36.2791 25.9952 31.0474 25.7157 30.213C25.4361 29.3785 26.3668 26.6466 26.3668 26.6466C26.3668 26.6466 28.206 24.7999 28.1398 23.8493C28.1048 22.9954 27.9978 22.146 27.8197 21.3096L37.7515 21.6725L37.4388 15.0331L23.1739 13.6254C22.6773 15.0077 18.186 14.3292 18.186 14.3292C13.3378 14.4888 13.0362 15.3668 11.0204 16.9124C9.00466 18.458 5.66834 31.7222 5.66834 31.7222L10.6416 33.2932Z" fill="#55AB60"/>
<path d="M20.2865 31.7224C20.0038 31.7722 19.7158 31.7868 19.4294 31.7659C18.8961 31.7659 18.1641 31.7296 17.3585 31.6498C16.5529 31.5699 15.8246 31.4575 15.3059 31.3558C15.0199 31.3195 14.7395 31.2488 14.4709 31.1454C14.7585 31.1455 15.0455 31.1722 15.328 31.2252C15.8503 31.2905 16.575 31.3813 17.3769 31.4611C18.1788 31.5409 18.9071 31.5953 19.4331 31.6316C19.7198 31.6352 20.0056 31.6656 20.2865 31.7224Z" fill="#263238"/>
<path d="M21.4045 30.3544C21.1217 30.4911 20.8227 30.5923 20.5144 30.6556C19.0468 31.036 17.5327 31.2131 16.0157 31.1818C15.7018 31.1919 15.3878 31.1626 15.0814 31.0947C15.3912 31.0561 15.7035 31.0403 16.0157 31.0475C16.5932 31.0294 17.3877 30.9895 18.2632 30.8879C19.1386 30.7862 19.9185 30.6411 20.4702 30.525C20.7767 30.4443 21.0891 30.3872 21.4045 30.3544Z" fill="#263238"/>
<path d="M26.893 24.252C26.8855 24.5286 26.8473 24.8035 26.7789 25.0719C26.6833 25.5762 26.5362 26.2656 26.3486 27.0202C26.161 27.7748 25.9807 28.4714 25.8189 28.9431C25.7538 29.2131 25.6575 29.4748 25.532 29.7231C25.5525 29.4474 25.6043 29.1748 25.6865 28.9104C25.8262 28.3445 25.9844 27.6914 26.161 26.9767C26.3375 26.2619 26.5067 25.6089 26.6465 25.0429C26.6963 24.7705 26.7791 24.5049 26.893 24.252Z" fill="#263238"/>
<path d="M10.8148 32.3682C9.96384 32.2386 9.124 32.0457 8.30247 31.7913C7.46301 31.5976 6.63924 31.3429 5.83793 31.0293C6.6885 31.161 7.52819 31.3538 8.35029 31.6062C9.18994 31.7992 10.0138 32.0539 10.8148 32.3682Z" fill="#263238"/>
<path d="M27.9969 21.2297C27.8581 21.2532 27.7163 21.2532 27.5775 21.2297C27.1933 21.1908 26.816 21.1018 26.4556 20.9648C25.8539 20.7418 25.3061 20.3971 24.8474 19.9529C24.3888 19.5086 24.0294 18.9746 23.7925 18.3853C23.5305 17.7369 23.4187 17.0391 23.4651 16.3427C23.4815 15.7682 23.6557 15.209 23.969 14.7245C24.1894 14.3982 24.5187 14.1582 24.8997 14.0461C25.0015 14.0184 25.1067 14.0049 25.2123 14.0062C25.2859 14.0062 25.3227 14.0062 25.3227 14.0062C25.3227 14.0062 25.1682 14.0062 24.9217 14.1041C24.5722 14.2315 24.2758 14.4702 24.0794 14.7826C23.5791 15.559 23.4393 16.9776 23.9727 18.3018C24.2209 18.9262 24.6096 19.4869 25.1093 19.9417C25.5188 20.3139 25.9905 20.6134 26.5034 20.827C26.9848 21.0146 27.4856 21.1497 27.9969 21.2297Z" fill="#263238"/>
<path d="M36.571 21.5418C36.4788 20.4292 36.4493 19.3125 36.4826 18.1967C36.4537 17.0818 36.4881 15.9663 36.5857 14.8552C36.6779 15.9666 36.7074 17.0821 36.6741 18.1967C36.705 19.3127 36.6706 20.4296 36.571 21.5418Z" fill="#263238"/>
<path d="M23.0785 14.0317C23.1189 13.2227 23.2035 12.3084 23.2035 12.3084C23.2035 12.3084 25.234 12.0871 25.3554 10.0191C25.4768 7.95108 25.3554 3.18015 25.3554 3.18015L21.677 1.32258L17.5939 4.48989L18.223 14.8299L21.9676 15.0657C22.2538 15.0735 22.5315 14.9691 22.7397 14.7752C22.948 14.5814 23.0698 14.314 23.0785 14.0317Z" fill="#FFBE9D"/>
<path d="M23.4425 8.38296C23.4425 8.38296 23.4425 8.42288 23.4094 8.47005C23.3821 8.50427 23.3467 8.5314 23.3063 8.5491C23.2659 8.5668 23.2218 8.57454 23.1777 8.57165C22.9423 8.57165 22.7142 8.30313 22.6333 7.99106C22.5948 7.83979 22.5948 7.68149 22.6333 7.53022C22.6408 7.46419 22.665 7.40106 22.7035 7.34657C22.7421 7.29207 22.7938 7.24793 22.854 7.21815C22.9035 7.19799 22.959 7.19799 23.0085 7.21815C23.0452 7.23611 23.0749 7.26542 23.0931 7.30161C23.1188 7.36329 23.0931 7.40321 23.0931 7.39958C23.0931 7.39595 23.0931 7.3633 23.0563 7.32701C23.0371 7.30102 23.0088 7.28294 22.9769 7.27625C22.945 7.26955 22.9117 7.2747 22.8834 7.29072C22.8383 7.31764 22.8008 7.35537 22.7744 7.40041C22.7481 7.44546 22.7337 7.49635 22.7326 7.54836C22.7016 7.68333 22.7016 7.82343 22.7326 7.9584C22.8062 8.24144 23.0048 8.47005 23.1814 8.49182C23.2159 8.49644 23.2511 8.49399 23.2846 8.48463C23.3181 8.47526 23.3494 8.45919 23.3763 8.43739C23.4205 8.40836 23.4352 8.37933 23.4425 8.38296Z" fill="#EB996E"/>
<path d="M26.6168 2.06267C26.3336 1.11211 25.3073 0.640462 24.373 0.37924C22.9494 -0.0198491 21.4118 -0.193998 20.0214 0.310305C18.631 0.814609 16.961 1.69986 16.961 3.21277C16.1407 3.14746 15.6698 3.85494 15.3461 4.73294C15.1392 5.26785 15.0152 5.83048 14.9783 6.40186C14.8753 8.38279 14.3125 11.1184 13.0103 12.5696C12.2747 13.3787 11.2557 13.9374 10.8364 14.946C10.4686 15.8204 10.6598 16.858 10.3177 17.7432C10.0124 18.5233 9.33928 19.0784 8.84637 19.7568C8.34421 20.5265 8.04867 21.4094 7.98755 22.3227C7.92642 23.2359 8.1017 24.1495 8.49692 24.9776C8.89499 25.7845 9.45544 26.503 10.1441 27.0893C10.8328 27.6756 11.6353 28.1175 12.5027 28.388C14.2209 28.9036 16.0532 28.9212 17.7812 28.4388C19.0782 28.133 20.288 27.5413 21.3199 26.7082C22.3757 25.8578 23.1009 24.6734 23.3724 23.3559C23.6336 21.8756 23.2143 20.37 22.9016 18.897C21.9231 14.2421 22.2027 13.9991 23.4386 9.67801C23.4681 9.60182 23.4828 9.52201 23.5049 9.44582C23.5269 9.36963 23.538 9.33335 23.5527 9.2753C23.5878 9.10449 23.6063 8.93076 23.6078 8.75648C23.4273 8.82269 23.2314 8.8367 23.0431 8.79685C22.8548 8.757 22.6819 8.66496 22.5448 8.53154C22.4074 8.38928 22.3116 8.21299 22.2675 8.02136C22.2235 7.82973 22.2329 7.62991 22.2947 7.44311C22.3814 7.23882 22.5108 7.05477 22.6742 6.9029C22.8377 6.75103 23.0317 6.63472 23.2437 6.56149C23.652 6.3946 24.0897 6.30753 24.4907 6.12249C25.3404 5.7234 25.9289 4.8962 26.3299 4.02909C26.6595 3.42811 26.7612 2.73094 26.6168 2.06267Z" fill="#263238"/>
<path d="M23.5894 8.4807C23.6671 8.59398 23.7313 8.71574 23.7806 8.84357C23.891 9.07218 24.0381 9.39513 24.2 9.76888L24.2294 9.83783H24.1522L23.7843 9.87049C23.5305 9.87049 23.3172 9.91766 23.067 9.91403C23.0453 9.9092 23.0251 9.89901 23.0083 9.88442C22.9916 9.86983 22.9789 9.85131 22.9714 9.83057C22.9604 9.79756 22.9604 9.76197 22.9714 9.72897C22.9799 9.68006 22.991 9.63161 23.0045 9.58382L23.0707 9.32618C23.104 9.15431 23.1558 8.98644 23.2252 8.82542C23.2184 9.00062 23.1925 9.17459 23.148 9.34433L23.0965 9.60196C23.0781 9.68905 23.045 9.82331 23.0965 9.81243C23.2804 9.81243 23.5415 9.77251 23.7843 9.758L24.1522 9.72534L24.1043 9.80517C23.9462 9.4423 23.8137 9.1012 23.7365 8.86534C23.6687 8.74488 23.6192 8.6153 23.5894 8.4807Z" fill="#55AB60"/>
<path d="M10.9951 39.0184L27.3089 38.5286L34.4082 65.8625L33.1024 97.2164H24.4765L25.5322 66.5301L19.2237 47.5008L20.1948 98.4318L11.477 98.5588L10.561 50.6863C10.5206 49.3548 10.0792 46.3543 10.2447 45.0337L10.9951 39.0184Z" fill="#263238"/>
<path d="M21.3939 47.8891C21.1269 47.9057 20.8588 47.8898 20.5957 47.8419C20.1028 47.7839 19.4297 47.6823 18.6903 47.5371C17.951 47.392 17.2888 47.2251 16.8106 47.0908C16.555 47.0354 16.3077 46.9475 16.075 46.8295C16.075 46.7751 17.2741 47.0581 18.7455 47.3521C20.2169 47.646 21.4013 47.8347 21.3939 47.8891Z" fill="#455A64"/>
<path d="M33.0141 95.4975C33.0141 95.5488 31.0609 95.5927 28.6515 95.5927C26.2421 95.5927 24.2852 95.5488 24.2852 95.4975C24.2852 95.4462 26.2385 95.4022 28.6515 95.4022C31.0645 95.4022 33.0141 95.4425 33.0141 95.4975Z" fill="#455A64"/>
<path d="M20.1174 97.1084C20.1174 97.1633 18.2194 97.2036 15.8799 97.2036C13.5404 97.2036 11.646 97.1633 11.646 97.1084C11.646 97.0534 13.5441 97.0131 15.8799 97.0131C18.2157 97.0131 20.1174 97.0571 20.1174 97.1084Z" fill="#455A64"/>
<path d="M18.9915 96.9769C18.94 96.9769 18.7119 85.8496 18.4802 72.1246C18.2484 58.3995 18.1123 47.2649 18.1601 47.2649C18.208 47.2649 18.4434 58.3886 18.6714 72.1209C18.8995 85.8532 19.0466 96.9769 18.9915 96.9769Z" fill="#455A64"/>
<path d="M31.8551 95.4966C31.851 95.4471 31.851 95.3974 31.8551 95.3479V94.9125C31.8551 94.5207 31.8845 93.9583 31.9066 93.2436C31.9581 91.7924 32.0316 89.6844 32.1236 87.1013C32.3222 81.9058 32.6018 74.744 32.9071 66.8384C32.9071 66.7622 32.9071 66.6897 32.9071 66.6244V66.6497C30.9759 59.0308 29.2287 52.1157 27.9596 47.1125L26.4883 41.1951C26.3191 40.5022 26.1903 39.9616 26.0984 39.5843C26.0542 39.4065 26.0248 39.2686 25.999 39.1634C25.9847 39.1162 25.9761 39.0675 25.9733 39.0183C25.9924 39.064 26.0072 39.1114 26.0174 39.1598C26.0469 39.2614 26.0836 39.3992 26.1351 39.5734C26.2345 39.9362 26.3779 40.4877 26.5618 41.177C26.9297 42.5774 27.4483 44.5946 28.0957 47.0799C29.3758 52.0794 31.1415 58.9764 33.0984 66.6062V66.6316C33.0984 66.6969 33.0984 66.7731 33.0984 66.8457C32.771 74.7513 32.473 81.9095 32.256 87.1049C32.142 89.6917 32.0464 91.7851 31.9801 93.2436C31.9434 93.9692 31.9139 94.5207 31.8955 94.9125C31.8955 95.0975 31.8735 95.2427 31.8698 95.3479C31.8703 95.3978 31.8654 95.4477 31.8551 95.4966Z" fill="#455A64"/>
<path d="M29.0414 65.9857C28.4218 66.1867 27.7835 66.3265 27.136 66.403C26.3414 66.5373 25.6646 66.6316 25.3593 66.6462V66.5736C25.4586 66.6026 25.5101 66.6208 25.5101 66.6353C25.5101 66.6498 25.4476 66.6353 25.3446 66.6353H25.1239L25.3446 66.5699C25.6315 66.4865 26.3083 66.3486 27.1029 66.2071C27.7401 66.0707 28.3894 65.9966 29.0414 65.9857Z" fill="#455A64"/>
<path d="M28.8904 67.0274C28.3166 67.0533 27.7416 67.0278 27.1725 66.9511C26.598 66.9395 26.0256 66.8775 25.4621 66.7658C26.6117 66.6732 27.7688 66.7615 28.8904 67.0274Z" fill="#455A64"/>
<path opacity="0.2" d="M10.9252 39.5954C11.1184 39.8402 11.3617 40.0419 11.6393 40.1876C11.917 40.3333 12.2226 40.4196 12.5363 40.4409C13.1933 40.5177 13.8579 40.5055 14.5116 40.4046C18.7234 39.9438 23.1853 39.5192 27.3088 38.5286C21.9714 38.8225 16.3324 38.7245 10.9951 39.0185L10.9399 39.4684" fill="black"/>
<g opacity="0.2">
<path opacity="0.2" d="M16.4244 47.0145L19.4333 58.53L19.2237 47.5006L16.4244 47.0145Z" fill="black"/>
</g>
</svg>
