<svg width="38" height="7" viewBox="0 0 38 7" fill="none" xmlns="http://www.w3.org/2000/svg">
<path d="M37.1826 6.35513C37.2569 6.34612 37.3306 6.33279 37.4034 6.31521C37.5062 6.28294 37.6007 6.22932 37.6807 6.15794C37.7607 6.08657 37.8242 5.9991 37.867 5.90145C37.925 5.75493 37.9476 5.59714 37.9333 5.44051C37.9333 5.2663 37.9333 5.07757 37.9333 4.86706C37.9333 4.44605 37.9333 3.96696 37.9333 3.41529V1.1106C37.9508 0.943748 37.9134 0.775747 37.8265 0.631517C37.7358 0.4836 37.593 0.373793 37.4255 0.323019C37.2422 0.29076 37.0555 0.281007 36.8698 0.293983H31.5746L0.903673 0.181471C0.738698 0.181856 0.579478 0.241312 0.455616 0.348793C0.331753 0.456274 0.251675 0.604467 0.230273 0.76581C0.230273 1.11061 0.230273 1.4917 0.230273 1.85464C0.230273 2.58052 0.230273 3.30641 0.230273 4.0323C0.230273 4.39524 0.230273 4.75818 0.230273 5.12113C0.216565 5.29075 0.223979 5.4614 0.252351 5.62924C0.298295 5.77641 0.392858 5.90418 0.520973 5.99219C0.656902 6.07727 0.816571 6.11791 0.977267 6.10833H1.48876H2.55221L10.6956 6.14826L24.4837 6.23173L33.7788 6.30432L36.3068 6.33335H36.9655H37.1863H36.9655H36.3068H33.7788H24.4837L10.6882 6.31883L2.54485 6.2898H0.944151C0.745117 6.30144 0.54761 6.24923 0.381145 6.14099C0.213706 6.02659 0.0915053 5.85863 0.0352455 5.66554C0.00226426 5.48112 -0.0076232 5.2934 0.00580664 5.1066C0.00580664 4.74366 0.00580664 4.38072 0.00580664 4.01778C0.00580664 3.29189 0.00580664 2.566 0.00580664 1.84012C0.00580664 1.47718 0.00580664 1.11423 0.00580664 0.751289C0.032657 0.543756 0.135273 0.352989 0.294446 0.2147C0.453619 0.0764106 0.658438 8.26278e-05 0.870556 0L31.5415 0.166951L36.8367 0.206875C37.0339 0.194944 37.2318 0.208365 37.4255 0.246799C37.6166 0.308412 37.7779 0.437718 37.8781 0.609742C37.9733 0.769602 38.0145 0.955164 37.9958 1.13964C37.9958 1.31022 37.9958 1.47718 37.9958 1.64413C37.9958 2.30106 37.9958 2.90354 37.9958 3.45885C37.9958 4.01415 37.9958 4.48235 37.9958 4.91062C37.9958 5.1175 37.9958 5.30985 37.9958 5.4877C38.0092 5.65 37.9827 5.8131 37.9185 5.96315C37.8708 6.0633 37.8017 6.1521 37.7159 6.22351C37.6302 6.29491 37.5299 6.34723 37.4218 6.37691C37.3414 6.38346 37.2604 6.37609 37.1826 6.35513Z" fill="#E0E0E0"/>
</svg>
