<svg width="20" height="15" viewBox="0 0 20 15" fill="none" xmlns="http://www.w3.org/2000/svg">
<path d="M12.1762 10.8695V12.5542C12.1762 13.0011 11.9757 13.4296 11.6189 13.7455C11.2621 14.0615 10.7782 14.239 10.2736 14.239H2.66353C2.15895 14.239 1.67503 14.0615 1.31824 13.7455C0.961446 13.4296 0.761002 13.0011 0.761002 12.5542V2.44575C0.761002 1.99893 0.961446 1.57041 1.31824 1.25445C1.67503 0.938502 2.15895 0.761002 2.66353 0.761002H9.89313C10.9438 0.761002 12.1762 1.51535 12.1762 2.44575V4.1305" stroke="#55AB60" stroke-width="1.5" stroke-linecap="round" stroke-linejoin="round"/>
<path d="M15.2203 10.8695L19.0253 7.50002L15.2203 4.13052" stroke="#55AB60" stroke-width="1.5" stroke-linecap="round" stroke-linejoin="round"/>
<path d="M6.08826 7.49998H18.2644" stroke="#55AB60" stroke-width="1.5" stroke-linecap="round" stroke-linejoin="round"/>
</svg>
