<svg width="7" height="14" viewBox="0 0 7 14" fill="none" xmlns="http://www.w3.org/2000/svg">
<path d="M6.64996 6.98902C6.65039 6.75577 6.5731 6.52973 6.4315 6.35014L1.68238 0.360621C1.52116 0.156761 1.28948 0.0285613 1.03833 0.00422415C0.787167 -0.020113 0.537096 0.0614062 0.343126 0.230848C0.149156 0.40029 0.0271756 0.643775 0.00401916 0.907739C-0.0191373 1.1717 0.0584267 1.43452 0.219648 1.63838L4.47486 6.98902L0.371621 12.3397C0.292723 12.4418 0.233803 12.5593 0.19825 12.6854C0.162696 12.8115 0.151209 12.9437 0.164449 13.0745C0.177689 13.2053 0.215394 13.3321 0.275398 13.4475C0.335402 13.563 0.416522 13.6648 0.514094 13.7472C0.611756 13.8386 0.72633 13.9078 0.850637 13.9506C0.974944 13.9933 1.10631 14.0086 1.23649 13.9954C1.36668 13.9823 1.49288 13.9411 1.6072 13.8743C1.72152 13.8075 1.82148 13.7167 1.90084 13.6074L6.48849 7.61792C6.60771 7.43316 6.66456 7.21173 6.64996 6.98902Z" fill="black"/>
</svg>
