<svg width="26" height="24" viewBox="0 0 26 24" fill="none" xmlns="http://www.w3.org/2000/svg">
<path d="M18.5065 0H18.4455C17.2946 0.00555309 16.1633 0.293724 15.1538 0.838469C14.1442 1.38321 13.2883 2.16736 12.6634 3.12003C12.0382 2.16694 11.1818 1.38254 10.1717 0.837772C9.16163 0.293006 8.0297 0.00506587 6.87833 0H6.81726C5.00412 0.0166356 3.27091 0.738037 1.99436 2.00741C0.717814 3.27677 0.00109888 4.99151 0 6.77891C0.1512 9.65785 1.16334 12.4283 2.90892 14.7412C5.72743 18.2411 9.00683 21.3548 12.6604 24C16.314 21.3548 19.5934 18.2411 22.4119 14.7412C24.1575 12.4283 25.1696 9.65785 25.3208 6.77891C25.3197 4.99201 24.6034 3.27772 23.3275 2.00843C22.0516 0.739145 20.3192 0.0174045 18.5065 0ZM21.0386 13.7457C18.6059 16.7947 15.7918 19.5283 12.6634 21.8813C9.53441 19.5279 6.71941 16.7944 4.28518 13.7457C2.75379 11.7214 1.85654 9.29967 1.70394 6.77891C1.70312 5.43492 2.24151 4.14515 3.20166 3.19097C4.16182 2.23679 5.46581 1.69563 6.82918 1.68555H6.88876C7.76543 1.68591 8.62722 1.90891 9.39105 2.33305C10.1386 2.74782 10.7733 3.33468 11.241 4.04356C11.3965 4.27773 11.6087 4.47004 11.8584 4.60314C12.1082 4.73623 12.3877 4.80593 12.6716 4.80593C12.9555 4.80593 13.235 4.73623 13.4847 4.60314C13.7345 4.47004 13.9467 4.27773 14.1022 4.04356C14.5715 3.33598 15.2058 2.74946 15.9521 2.33305C16.7159 1.90891 17.5777 1.68591 18.4544 1.68555H18.5065C19.8699 1.69563 21.1739 2.23679 22.1341 3.19097C23.0942 4.14515 23.6326 5.43492 23.6318 6.77891C23.4662 9.29893 22.5657 11.7182 21.0386 13.7457Z" fill="#EC5353"/>
</svg>
