<svg width="2" height="2" viewBox="0 0 2 2" fill="none" xmlns="http://www.w3.org/2000/svg">
<path d="M1.99916 1.05967C1.98482 1.25247 1.91343 1.43688 1.79383 1.59003C1.67423 1.74318 1.51169 1.85832 1.32637 1.92118C1.14105 1.98403 0.941093 1.99184 0.751315 1.94363C0.561536 1.89542 0.390276 1.79332 0.258779 1.64998C0.127283 1.50663 0.0413382 1.32835 0.0115961 1.13727C-0.018146 0.946183 0.00962273 0.750689 0.0914673 0.575031C0.173312 0.399373 0.305632 0.251285 0.472006 0.149126C0.63838 0.0469666 0.831488 -0.00476723 1.02739 0.000345456C1.29763 0.016439 1.55073 0.136359 1.73239 0.334388C1.91405 0.532416 2.00982 0.792794 1.99916 1.05967Z" fill="#55AB60"/>
</svg>
