<svg width="33" height="33" viewBox="0 0 33 33" fill="none" xmlns="http://www.w3.org/2000/svg">
<g filter="url(#filter0_d_108_33047)">
<path d="M22.2721 0H22.2118C21.0755 0.00578447 19.9585 0.305963 18.9618 0.873405C17.965 1.44085 17.12 2.25766 16.5029 3.25003C15.8857 2.25723 15.0401 1.44014 14.0428 0.872679C13.0455 0.305214 11.928 0.00527695 10.7912 0H10.7309C8.94071 0.0173288 7.22947 0.768789 5.96909 2.09105C4.70872 3.4133 4.00108 5.19949 4 7.06136C4.14928 10.0603 5.1486 12.9461 6.87206 15.3554C9.65486 19.0011 12.8927 22.2446 16.5 25C20.1073 22.2446 23.3451 19.0011 26.1279 15.3554C27.8514 12.9461 28.8507 10.0603 29 7.06136C28.9989 5.20001 28.2917 3.41429 27.0319 2.09211C25.7722 0.769943 24.0617 0.0181297 22.2721 0ZM24.7721 14.3185C22.3701 17.4945 19.5917 20.3419 16.5029 22.793C13.4136 20.3415 10.6343 17.4942 8.23088 14.3185C6.7189 12.2098 5.83302 9.68716 5.68235 7.06136C5.68154 5.66138 6.21311 4.31787 7.1611 3.32393C8.10909 2.32999 9.39656 1.76628 10.7426 1.75578H10.8015C11.667 1.75616 12.5179 1.98845 13.2721 2.43026C14.0101 2.86232 14.6368 3.47362 15.0985 4.21204C15.2521 4.45597 15.4616 4.65629 15.7082 4.79493C15.9548 4.93358 16.2307 5.00617 16.511 5.00617C16.7914 5.00617 17.0673 4.93358 17.3139 4.79493C17.5605 4.65629 17.77 4.45597 17.9235 4.21204C18.3868 3.47498 19.0131 2.86402 19.75 2.43026C20.5041 1.98845 21.355 1.75616 22.2206 1.75578H22.2721C23.6181 1.76628 24.9056 2.32999 25.8536 3.32393C26.8016 4.31787 27.3332 5.66138 27.3324 7.06136C27.1689 9.68639 26.2798 12.2064 24.7721 14.3185Z" fill="#EC5353"/>
</g>
<defs>
<filter id="filter0_d_108_33047" x="0" y="0" width="33" height="33" filterUnits="userSpaceOnUse" color-interpolation-filters="sRGB">
<feFlood flood-opacity="0" result="BackgroundImageFix"/>
<feColorMatrix in="SourceAlpha" type="matrix" values="0 0 0 0 0 0 0 0 0 0 0 0 0 0 0 0 0 0 127 0" result="hardAlpha"/>
<feOffset dy="4"/>
<feGaussianBlur stdDeviation="2"/>
<feComposite in2="hardAlpha" operator="out"/>
<feColorMatrix type="matrix" values="0 0 0 0 0 0 0 0 0 0 0 0 0 0 0 0 0 0 0.1 0"/>
<feBlend mode="normal" in2="BackgroundImageFix" result="effect1_dropShadow_108_33047"/>
<feBlend mode="normal" in="SourceGraphic" in2="effect1_dropShadow_108_33047" result="shape"/>
</filter>
</defs>
</svg>
