<svg width="25" height="24" viewBox="0 0 25 24" fill="none" xmlns="http://www.w3.org/2000/svg">
<path d="M18.2721 0H18.2118C17.0755 0.00550488 15.9585 0.291174 14.9618 0.83119C13.965 1.3712 13.12 2.14854 12.5029 3.09294C11.8857 2.14813 11.0401 1.37054 10.0428 0.830499C9.04555 0.290462 7.92796 0.00502189 6.79118 0H6.73088C4.94046 0.0164937 3.22899 0.731833 1.96858 1.99049C0.70816 3.24916 0.000697555 4.94938 0 6.72151C0.149284 9.57546 1.1486 12.3218 2.87206 14.6147C5.65486 18.0842 8.89271 21.1708 12.5 23.7931C16.1073 21.1708 19.3451 18.0842 22.1279 14.6147C23.8514 12.3218 24.8507 9.57546 25 6.72151C24.9993 4.94988 24.2923 3.25009 23.0325 1.99151C21.7727 0.732931 20.062 0.017256 18.2721 0Z" fill="#FF3F3F"/>
</svg>
