<svg width="24" height="26" viewBox="0 0 24 26" fill="none" xmlns="http://www.w3.org/2000/svg">
<path d="M3.67647 5.7097C16.5623 3.95158 19.7379 4.16725 21.7392 6.45765C23.7405 8.74805 23.273 16.3059 20.9323 18.4083C18.5916 20.5107 8.43395 20.7106 5.21425 18.4083C1.81033 15.9744 3.78662 8.48685 3.67549 3.95058C3.74257 1.41284 1.0014 1.00127 1.0014 1.00127" stroke="white" stroke-width="2" stroke-linecap="round" stroke-linejoin="round"/>
<path d="M14.9214 11.1769H18.3173H14.9214Z" fill="#60C370"/>
<path fill-rule="evenodd" clip-rule="evenodd" d="M5.70285 23.4294C5.83472 23.4296 5.9636 23.4684 6.07314 23.541C6.18268 23.6135 6.26795 23.7166 6.31824 23.837C6.36852 23.9575 6.38156 24.09 6.35563 24.2178C6.32971 24.3456 6.26601 24.4629 6.17262 24.5549C6.07923 24.6469 5.96036 24.7095 5.83098 24.7347C5.7016 24.76 5.56753 24.7467 5.44577 24.6967C5.32402 24.6466 5.22001 24.562 5.14691 24.4535C5.07381 24.3451 5.03489 24.2176 5.03509 24.0873C5.03522 24.0007 5.0526 23.9151 5.08623 23.8352C5.11986 23.7553 5.1691 23.6827 5.23111 23.6216C5.29312 23.5605 5.36666 23.5121 5.44761 23.4791C5.52855 23.4461 5.61528 23.4292 5.70285 23.4294Z" fill="#60C370"/>
<path fill-rule="evenodd" clip-rule="evenodd" d="M19.4887 23.4294C19.6206 23.4294 19.7496 23.468 19.8593 23.5405C19.9689 23.6129 20.0543 23.7159 20.1048 23.8363C20.1552 23.9568 20.1684 24.0894 20.1426 24.2172C20.1168 24.345 20.0532 24.4624 19.9598 24.5545C19.8665 24.6467 19.7475 24.7093 19.6181 24.7346C19.4887 24.76 19.3547 24.7468 19.2329 24.6968C19.111 24.6467 19.007 24.5621 18.9338 24.4536C18.8607 24.3452 18.8217 24.2176 18.8219 24.0873C18.8222 23.9127 18.8926 23.7454 19.0176 23.622C19.1426 23.4986 19.312 23.4294 19.4887 23.4294Z" fill="#60C370"/>
<path d="M14.9214 11.1769H18.3173M5.70285 23.4294C5.83472 23.4296 5.9636 23.4684 6.07314 23.541C6.18268 23.6135 6.26795 23.7166 6.31824 23.837C6.36852 23.9575 6.38156 24.09 6.35563 24.2178C6.32971 24.3456 6.26601 24.4629 6.17262 24.5549C6.07923 24.6469 5.96036 24.7095 5.83098 24.7347C5.7016 24.76 5.56753 24.7467 5.44577 24.6967C5.32402 24.6466 5.22001 24.562 5.14691 24.4535C5.07381 24.3451 5.03489 24.2176 5.03509 24.0873C5.03522 24.0007 5.0526 23.9151 5.08623 23.8352C5.11986 23.7553 5.1691 23.6827 5.23111 23.6216C5.29312 23.5605 5.36666 23.5121 5.44761 23.4791C5.52855 23.4461 5.61528 23.4292 5.70285 23.4294ZM19.4887 23.4294C19.6206 23.4294 19.7496 23.468 19.8593 23.5405C19.9689 23.6129 20.0543 23.7159 20.1048 23.8363C20.1552 23.9568 20.1684 24.0894 20.1426 24.2172C20.1168 24.345 20.0532 24.4624 19.9598 24.5545C19.8665 24.6467 19.7475 24.7093 19.6181 24.7346C19.4887 24.76 19.3547 24.7468 19.2329 24.6968C19.111 24.6467 19.007 24.5621 18.9338 24.4536C18.8607 24.3451 18.8217 24.2176 18.8219 24.0873C18.8222 23.9127 18.8926 23.7454 19.0176 23.622C19.1426 23.4986 19.312 23.4294 19.4887 23.4294Z" stroke="white" stroke-width="2" stroke-linecap="round" stroke-linejoin="round"/>
</svg>
