<svg width="21" height="2" viewBox="0 0 21 2" fill="none" xmlns="http://www.w3.org/2000/svg">
<g opacity="0.2">
<path opacity="0.2" d="M1.56826 0.831253C1.55701 0.9825 1.501 1.12716 1.40718 1.2473C1.31336 1.36743 1.18586 1.45775 1.04048 1.50706C0.895102 1.55637 0.738248 1.56249 0.589375 1.52468C0.440501 1.48686 0.306155 1.40676 0.203001 1.29432C0.0998482 1.18187 0.0324281 1.04202 0.00909664 0.892127C-0.0142348 0.74223 0.00754863 0.588876 0.0717522 0.451082C0.135956 0.313287 0.239756 0.19712 0.370269 0.116981C0.500783 0.0368428 0.652268 -0.00373964 0.805944 0.000270992C1.01829 0.0119435 1.21742 0.105739 1.36013 0.2613C1.50283 0.416861 1.57761 0.621652 1.56826 0.831253Z" fill="white"/>
<path opacity="0.2" d="M3.99627 0.842693C4.00377 0.948697 3.98907 1.05508 3.95311 1.15524C3.91714 1.25541 3.86067 1.3472 3.7872 1.42491C3.71373 1.50262 3.62484 1.56459 3.52606 1.60696C3.42727 1.64933 3.32071 1.6712 3.21299 1.6712C3.10527 1.6712 2.99871 1.64933 2.89992 1.60696C2.80114 1.56459 2.71225 1.50262 2.63878 1.42491C2.56531 1.3472 2.50884 1.25541 2.47287 1.15524C2.4369 1.05508 2.42222 0.948697 2.42972 0.842693C2.42222 0.736689 2.4369 0.630295 2.47287 0.530132C2.50884 0.429968 2.56531 0.338174 2.63878 0.260463C2.71225 0.182753 2.80114 0.120785 2.89992 0.0784158C2.99871 0.036047 3.10527 0.01418 3.21299 0.01418C3.32071 0.01418 3.42727 0.036047 3.52606 0.0784158C3.62484 0.120785 3.71373 0.182753 3.7872 0.260463C3.86067 0.338174 3.91714 0.429968 3.95311 0.530132C3.98907 0.630295 4.00377 0.736689 3.99627 0.842693Z" fill="white"/>
<path opacity="0.2" d="M6.42793 0.854097C6.41668 1.00534 6.36068 1.15 6.26686 1.27013C6.17304 1.39027 6.04553 1.48059 5.90015 1.5299C5.75478 1.57921 5.59792 1.58533 5.44905 1.54751C5.30017 1.50969 5.16583 1.4296 5.06267 1.31716C4.95952 1.20471 4.8921 1.06487 4.86877 0.91497C4.84544 0.765075 4.86722 0.611722 4.93142 0.473929C4.99563 0.336136 5.09943 0.21997 5.22994 0.139833C5.36045 0.0596949 5.51194 0.0191129 5.66562 0.0231235C5.87761 0.0357479 6.07615 0.129818 6.21866 0.285159C6.36117 0.440501 6.43629 0.644751 6.42793 0.854097Z" fill="white"/>
<path opacity="0.2" d="M8.85573 0.865564C8.84449 1.01681 8.78847 1.16147 8.69465 1.28161C8.60083 1.40174 8.47333 1.49206 8.32795 1.54137C8.18258 1.59068 8.02572 1.5968 7.87685 1.55899C7.72798 1.52117 7.59364 1.44107 7.49049 1.32863C7.38733 1.21618 7.31991 1.07635 7.29658 0.926449C7.27325 0.776552 7.29504 0.623186 7.35924 0.485392C7.42344 0.347598 7.52723 0.23143 7.65775 0.151292C7.78826 0.0711532 7.93975 0.0305708 8.09343 0.0345814C8.30542 0.0472059 8.50395 0.141277 8.64646 0.29662C8.78896 0.451963 8.8641 0.656216 8.85573 0.865564Z" fill="white"/>
<path opacity="0.2" d="M11.2838 0.873328C11.2733 1.0248 11.2179 1.16988 11.1245 1.29054C11.0311 1.4112 10.9038 1.50212 10.7584 1.55199C10.613 1.60187 10.456 1.6085 10.3069 1.57106C10.1577 1.53363 10.023 1.45378 9.91948 1.34144C9.81596 1.2291 9.74818 1.08922 9.72458 0.939193C9.70098 0.789164 9.72259 0.635608 9.78674 0.497597C9.85088 0.359586 9.95472 0.243215 10.0854 0.162946C10.216 0.0826776 10.3677 0.0420423 10.5215 0.0461097C10.7328 0.0587298 10.9308 0.152279 11.0732 0.306806C11.2156 0.461332 11.2912 0.664617 11.2838 0.873328Z" fill="white"/>
<path opacity="0.2" d="M13.7157 0.884696C13.7053 1.03538 13.6505 1.17978 13.5579 1.30012C13.4654 1.42046 13.3393 1.5115 13.195 1.56202C13.0507 1.61253 12.8946 1.62033 12.7458 1.58446C12.5971 1.54859 12.4623 1.47059 12.3579 1.36009C12.2535 1.2496 12.1842 1.11141 12.1584 0.962529C12.1326 0.813651 12.1515 0.660584 12.2127 0.522163C12.274 0.383742 12.3749 0.266 12.5031 0.18344C12.6314 0.100881 12.7812 0.057098 12.9343 0.0574819C13.149 0.0653225 13.3518 0.156793 13.4983 0.311842C13.6447 0.466892 13.7229 0.672885 13.7157 0.884696Z" fill="white"/>
<path opacity="0.2" d="M16.1434 0.89606C16.1509 1.00207 16.1362 1.10846 16.1003 1.20863C16.0643 1.30879 16.0078 1.40059 15.9344 1.4783C15.8609 1.55601 15.772 1.61798 15.6732 1.66035C15.5744 1.70272 15.4679 1.72458 15.3601 1.72458C15.2524 1.72458 15.1459 1.70272 15.0471 1.66035C14.9483 1.61798 14.8594 1.55601 14.7859 1.4783C14.7125 1.40059 14.656 1.30879 14.62 1.20863C14.5841 1.10846 14.5694 1.00207 14.5769 0.89606C14.5694 0.790054 14.5841 0.683659 14.62 0.583494C14.656 0.483328 14.7125 0.391532 14.7859 0.31382C14.8594 0.236109 14.9483 0.174151 15.0471 0.131782C15.1459 0.0894121 15.2524 0.0675447 15.3601 0.0675447C15.4679 0.0675447 15.5744 0.0894121 15.6732 0.131782C15.772 0.174151 15.8609 0.236109 15.9344 0.31382C16.0078 0.391532 16.0643 0.483328 16.1003 0.583494C16.1362 0.683659 16.1509 0.790054 16.1434 0.89606Z" fill="white"/>
<path opacity="0.2" d="M18.5713 0.907535C18.5609 1.05822 18.5061 1.20263 18.4136 1.32296C18.321 1.4433 18.1949 1.53433 18.0506 1.58485C17.9063 1.63537 17.7502 1.64317 17.6015 1.6073C17.4527 1.57142 17.3179 1.49343 17.2135 1.38293C17.1091 1.27243 17.0398 1.13425 17.014 0.985367C16.9882 0.83649 17.0071 0.683424 17.0684 0.545003C17.1296 0.406582 17.2305 0.28884 17.3588 0.206281C17.487 0.123722 17.6368 0.0799505 17.79 0.0803345C18.0046 0.088175 18.2074 0.179633 18.3539 0.334683C18.5003 0.489732 18.5785 0.695724 18.5713 0.907535Z" fill="white"/>
<path opacity="0.2" d="M20.9996 0.918707C20.9891 1.07018 20.9337 1.21526 20.8403 1.33592C20.7469 1.45658 20.6196 1.5475 20.4742 1.59737C20.3289 1.64725 20.1718 1.65389 20.0227 1.61646C19.8735 1.57902 19.7388 1.49916 19.6353 1.38682C19.5318 1.27448 19.464 1.1346 19.4404 0.984573C19.4168 0.834544 19.4384 0.680987 19.5025 0.542976C19.5667 0.404964 19.6705 0.288592 19.8012 0.208324C19.9318 0.128055 20.0835 0.0874309 20.2373 0.0914982C20.4486 0.104118 20.6466 0.197657 20.789 0.352183C20.9314 0.50671 21.007 0.709996 20.9996 0.918707Z" fill="white"/>
</g>
</svg>
