<svg width="16" height="18" viewBox="0 0 16 18" fill="none" xmlns="http://www.w3.org/2000/svg">
<path d="M7.98551 18L1.86136 11.6042C1.77626 11.5082 1.69205 11.4115 1.60872 11.3143C0.562609 10.094 -0.00252719 8.6035 8.49577e-06 7.07142C8.49577e-06 5.19597 0.841336 3.39732 2.33891 2.07117C3.83648 0.745023 5.86763 0 7.98551 0C10.1034 0 12.1345 0.745023 13.6321 2.07117C15.1297 3.39732 15.971 5.19597 15.971 7.07142C15.9736 8.6028 15.4087 10.0926 14.363 11.3123L14.3623 11.3143C14.3623 11.3143 14.1445 11.5676 14.1118 11.6016L7.98551 18ZM2.76735 10.5396C2.7688 10.5396 2.93722 10.7376 2.9757 10.7801L7.98551 16.0123L13.0019 10.773C13.0338 10.7376 13.2037 10.5384 13.2044 10.5377C14.059 9.54071 14.5208 8.32309 14.5191 7.07142C14.5191 5.53696 13.8307 4.06534 12.6055 2.98031C11.3802 1.89528 9.71833 1.28571 7.98551 1.28571C6.2527 1.28571 4.59085 1.89528 3.36556 2.98031C2.14028 4.06534 1.45192 5.53696 1.45192 7.07142C1.4504 8.32386 1.91274 9.54219 2.76807 10.5396H2.76735Z" fill="#55AB60"/>
<path d="M11.6163 10.2857H10.1644V5.14285H5.80869V10.2857H4.35678V5.14285C4.35716 4.80196 4.51025 4.47513 4.78245 4.23409C5.05466 3.99304 5.42373 3.85748 5.80869 3.85714H10.1644C10.5494 3.85748 10.9184 3.99304 11.1906 4.23409C11.4628 4.47513 11.6159 4.80196 11.6163 5.14285V10.2857Z" fill="#55AB60"/>
<path d="M7.26001 8.99998H8.71192V10.2857H7.26001V8.99998Z" fill="#55AB60"/>
<path d="M7.26001 6.42856H8.71192V7.71427H7.26001V6.42856Z" fill="#55AB60"/>
</svg>
