<svg width="2" height="2" viewBox="0 0 2 2" fill="none" xmlns="http://www.w3.org/2000/svg">
<path d="M1.89312 0.999992C1.90217 1.12794 1.88444 1.25635 1.84103 1.37725C1.79762 1.49815 1.72946 1.60894 1.64078 1.70274C1.5521 1.79653 1.44481 1.87133 1.32557 1.92247C1.20634 1.9736 1.07772 1.99998 0.947709 1.99998C0.817694 1.99998 0.689062 1.9736 0.569829 1.92247C0.450596 1.87133 0.343313 1.79653 0.254637 1.70274C0.165961 1.60894 0.0977993 1.49815 0.0543879 1.37725C0.0109765 1.25635 -0.0067526 1.12794 0.00230046 0.999992C-0.0067526 0.872047 0.0109765 0.74363 0.0543879 0.622734C0.0977993 0.501838 0.165961 0.391043 0.254637 0.297247C0.343313 0.203451 0.450596 0.12867 0.569829 0.0775319C0.689062 0.0263932 0.817694 0 0.947709 0C1.07772 0 1.20634 0.0263932 1.32557 0.0775319C1.44481 0.12867 1.5521 0.203451 1.64078 0.297247C1.72946 0.391043 1.79762 0.501838 1.84103 0.622734C1.88444 0.74363 1.90217 0.872047 1.89312 0.999992Z" fill="#55AB60"/>
</svg>
