<svg width="2" height="2" viewBox="0 0 2 2" fill="none" xmlns="http://www.w3.org/2000/svg">
<path d="M1.99917 1.05966C1.98483 1.25246 1.91343 1.43687 1.79383 1.59001C1.67423 1.74316 1.5117 1.8583 1.32637 1.92116C1.14105 1.98401 0.941097 1.99182 0.751317 1.94361C0.561538 1.8954 0.390277 1.7933 0.25878 1.64996C0.127283 1.50662 0.0413384 1.32834 0.0115961 1.13726C-0.0181461 0.946173 0.00962276 0.750681 0.0914676 0.575025C0.173312 0.399369 0.305633 0.251282 0.472008 0.149124C0.638383 0.0469661 0.831491 -0.00476718 1.02739 0.000345453C1.29809 0.0152252 1.55193 0.134793 1.73385 0.333097C1.91577 0.531402 2.0111 0.792463 1.99917 1.05966Z" fill="#55AB60"/>
</svg>
