<svg width="10" height="10" viewBox="0 0 10 10" fill="none" xmlns="http://www.w3.org/2000/svg">
<path d="M9.28905 3.92644H6.07388V0.710944C6.07388 0.52239 5.99899 0.341559 5.86567 0.208231C5.73236 0.0749028 5.55155 0 5.36301 0H4.65214C4.46361 0 4.28279 0.0749028 4.14948 0.208231C4.01617 0.341559 3.94127 0.52239 3.94127 0.710944V3.92644H0.710871C0.522336 3.92644 0.341523 4.00135 0.208209 4.13467C0.0748951 4.268 0 4.44883 0 4.63739L0 5.34833C0 5.53689 0.0748951 5.71772 0.208209 5.85105C0.341523 5.98437 0.522336 6.05928 0.710871 6.05928H3.9301V9.28899C3.9301 9.47755 4.00499 9.65838 4.13831 9.79171C4.27162 9.92504 4.45244 9.99994 4.64097 9.99994H5.35184C5.54038 9.99994 5.72119 9.92504 5.8545 9.79171C5.98782 9.65838 6.06271 9.47755 6.06271 9.28899V6.07045H9.28905C9.47758 6.07045 9.6584 5.99555 9.79171 5.86222C9.92502 5.72889 9.99992 5.54806 9.99992 5.3595V4.64856C10.0014 4.55426 9.98411 4.46061 9.94905 4.37306C9.91399 4.28551 9.86186 4.20581 9.7957 4.13861C9.72954 4.0714 9.65067 4.01803 9.56369 3.98161C9.47671 3.94518 9.38335 3.92643 9.28905 3.92644Z" fill="white"/>
</svg>
