<svg width="5" height="6" viewBox="0 0 5 6" fill="none" xmlns="http://www.w3.org/2000/svg">
<path d="M3.01678 2.76292C3.27901 2.64902 3.50149 2.46158 3.65653 2.22391C3.81158 1.98625 3.89235 1.70886 3.88878 1.42627C3.89855 1.24257 3.8703 1.05883 3.80575 0.88624C3.74121 0.713652 3.64172 0.555831 3.51334 0.422391C3.38496 0.28895 3.23038 0.182686 3.05902 0.110068C2.88766 0.0374503 2.70311 0 2.5166 0C2.33009 0 2.14554 0.0374503 1.97418 0.110068C1.80282 0.182686 1.64824 0.28895 1.51986 0.422391C1.39148 0.555831 1.29199 0.713652 1.22744 0.88624C1.1629 1.05883 1.13466 1.24257 1.14443 1.42627C1.13868 1.71169 1.21879 1.99239 1.37466 2.23294C1.53053 2.47349 1.75516 2.66309 2.0202 2.77781C-0.0937476 3.09056 0.000634229 5.3543 0.000634229 5.3543L4.9986 5.37664C4.9986 5.37664 5.11562 3.07195 3.01678 2.76292Z" fill="#55AB60"/>
</svg>
