<svg width="20" height="27" viewBox="0 0 20 27" fill="none" xmlns="http://www.w3.org/2000/svg">
<path fill-rule="evenodd" clip-rule="evenodd" d="M10.0005 25.0965C5.14621 25.0965 1 24.3978 1 21.5998C1 18.8018 5.1156 16.2175 10.0005 16.2175C14.8548 16.2175 19 18.7767 19 21.5747C19 24.3728 14.8802 25.0965 10.0005 25.0965Z" stroke="white" stroke-width="2" stroke-linecap="round" stroke-linejoin="round"/>
<path fill-rule="evenodd" clip-rule="evenodd" d="M9.99949 12.8261C11.5846 12.8207 13.1028 12.194 14.2208 11.0834C15.3387 9.97293 15.9651 8.46938 15.9624 6.9029C15.9597 5.33642 15.328 3.83502 14.2062 2.7283C13.0844 1.62159 11.5641 1 9.97895 1C8.39382 1 6.87344 1.62159 5.75162 2.7283C4.6298 3.83502 3.99816 5.33642 3.99544 6.9029C3.99271 8.46938 4.61911 9.97293 5.73707 11.0834C6.85503 12.194 8.37322 12.8207 9.95834 12.8261H9.99949Z" stroke="white" stroke-width="2" stroke-linecap="round" stroke-linejoin="round"/>
</svg>
