<svg width="15" height="15" viewBox="0 0 15 15" fill="none" xmlns="http://www.w3.org/2000/svg">
<path d="M7.3265 2.13417L1.62811 6.80083V13.3333H5.69839V10H8.95461V13.3333H13.0249V7.20167C13.0249 7.07669 12.9975 6.95331 12.9447 6.84065C12.8918 6.72799 12.8149 6.62894 12.7196 6.55083L7.3265 2.13417ZM7.3265 0L13.7364 5.25C14.0222 5.48407 14.253 5.78091 14.4116 6.11859C14.5703 6.45626 14.6528 6.82613 14.653 7.20083V13.3333C14.653 13.7754 14.4815 14.1993 14.1761 14.5118C13.8708 14.8244 13.4567 15 13.0249 15H1.62811C1.19631 15 0.782192 14.8244 0.476862 14.5118C0.171532 14.1993 0 13.7754 0 13.3333V6.80083C3.04438e-05 6.55103 0.0549151 6.30442 0.160595 6.07926C0.266276 5.85409 0.420048 5.65613 0.610541 5.5L7.3265 0Z" fill="black"/>
</svg>
