<svg width="22" height="24" viewBox="0 0 22 24" fill="none" xmlns="http://www.w3.org/2000/svg">
<path d="M15.9096 14.9392H13.1782V13.8741C14.1113 13.3018 14.8251 12.4061 15.1618 11.3445H15.7922C17.1905 11.3445 18.3281 10.2068 18.3281 8.80852C18.3281 8.0377 17.982 7.34658 17.4375 6.88106V6.65625C17.4375 2.98598 14.4515 0 10.7812 0C7.11098 0 4.125 2.98598 4.125 6.65625V6.88111C3.5805 7.34662 3.23438 8.0377 3.23438 8.80856C3.23438 10.2069 4.37198 11.3445 5.77031 11.3445H6.40073C6.73739 12.4061 7.45116 13.3018 8.38434 13.8741V14.9393H5.65289C2.53589 14.9392 0 17.4751 0 20.5921V23.5312C0 23.7901 0.209859 24 0.46875 24H3.57122C3.83011 24 4.03997 23.7901 4.03997 23.5312C4.03997 23.2724 3.83011 23.0625 3.57122 23.0625H0.9375V20.5921C0.9375 17.992 3.05278 15.8767 5.65289 15.8767H5.87789L8.66498 19.5174C8.74706 19.6247 8.87147 19.6913 9.00628 19.7002C9.01664 19.7009 9.02691 19.7012 9.03722 19.7012C9.16111 19.7012 9.28045 19.6521 9.36867 19.5639L10.3125 18.6201V23.0625H7.78997C7.53108 23.0625 7.32122 23.2724 7.32122 23.5312C7.32122 23.7901 7.53108 24 7.78997 24H21.0938C21.3526 24 21.5625 23.7901 21.5625 23.5312V20.5921C21.5625 17.4751 19.0266 14.9392 15.9096 14.9392ZM13.0559 15.8767H14.5039L12.4784 18.5226L11.4442 17.4884L13.0559 15.8767ZM12.4026 4.899C12.2193 4.71614 11.9225 4.71647 11.7397 4.89984L11.1147 5.52633C10.4148 6.22805 9.48356 6.61448 8.49249 6.61448H7.12603C7.14863 4.61766 8.77922 3 10.7812 3C12.7833 3 14.4139 4.61766 14.4364 6.61444H13.6233C13.0284 6.61444 12.472 6.31252 12.1459 5.82005L12.4034 5.56191C12.5863 5.37862 12.5859 5.08181 12.4026 4.899ZM15.7922 10.407H15.375V7.21012H15.7922C16.6736 7.21012 17.3906 7.92722 17.3906 8.80861C17.3906 9.69 16.6736 10.407 15.7922 10.407ZM10.7812 0.9375C13.8392 0.9375 16.3442 3.35011 16.4929 6.37186C16.2702 6.30769 16.0353 6.27262 15.7922 6.27262H15.3588C15.1633 3.91847 13.185 2.0625 10.7812 2.0625C8.37745 2.0625 6.39923 3.91847 6.20367 6.27258H5.77031C5.52722 6.27258 5.29233 6.30769 5.06958 6.37181C5.21831 3.35011 7.72327 0.9375 10.7812 0.9375ZM6.1875 10.407H5.77031C4.88892 10.407 4.17188 9.68995 4.17188 8.80856C4.17188 7.92717 4.88892 7.21008 5.77031 7.21008H6.1875V10.407ZM7.125 9.96234V7.55194H8.49249C9.59091 7.55194 10.6306 7.17286 11.463 6.47695C11.9708 7.14698 12.7713 7.55194 13.6233 7.55194H14.4375V9.96234C14.4375 10.2158 14.4113 10.4633 14.3618 10.7023H12.4501C12.2566 10.1567 11.7356 9.76477 11.1245 9.76477H10.7495C9.97406 9.76477 9.34322 10.3956 9.34322 11.171C9.34322 11.9464 9.97406 12.5773 10.7495 12.5773H11.1245C11.7355 12.5773 12.2566 12.1853 12.4501 11.6398H14.0268C13.4172 12.8102 12.1916 13.612 10.7812 13.612C8.7652 13.6121 7.125 11.9748 7.125 9.96234ZM11.5933 11.171C11.5933 11.4295 11.383 11.6398 11.1245 11.6398H10.7495C10.491 11.6398 10.2808 11.4295 10.2808 11.171C10.2808 10.9125 10.491 10.7023 10.7495 10.7023H11.1245C11.383 10.7023 11.5933 10.9126 11.5933 11.171ZM10.7812 14.5496C11.2912 14.5496 11.7819 14.466 12.2407 14.3122V15.3661L10.7812 16.8255L9.32184 15.366V14.3122C9.78056 14.466 10.2713 14.5496 10.7812 14.5496ZM9.08409 18.5226L7.05858 15.8767H8.50664L10.1183 17.4884L9.08409 18.5226ZM20.625 23.0625H11.25V18.6201L12.1939 19.564C12.2821 19.6522 12.4014 19.7013 12.5253 19.7013C12.5356 19.7013 12.546 19.701 12.5563 19.7003C12.691 19.6914 12.8154 19.6248 12.8976 19.5175L15.6847 15.8768H15.9097C18.5097 15.8767 20.625 17.992 20.625 20.5921V23.0625Z" fill="#55AB60"/>
<path d="M17.3287 20.5312H15.0787C14.8198 20.5312 14.61 20.7412 14.61 21C14.61 21.2588 14.8198 21.4688 15.0787 21.4688H17.3287C17.5876 21.4688 17.7974 21.2588 17.7974 21C17.7974 20.7412 17.5876 20.5312 17.3287 20.5312Z" fill="#55AB60"/>
<path d="M5.68091 23.0625C5.55716 23.0625 5.43669 23.1126 5.3495 23.1998C5.26185 23.287 5.21216 23.408 5.21216 23.5312C5.21216 23.6545 5.26185 23.7755 5.3495 23.8626C5.43622 23.9498 5.55716 24 5.68091 24C5.80419 24 5.92466 23.9498 6.01231 23.8626C6.0995 23.7755 6.14966 23.6545 6.14966 23.5312C6.14966 23.408 6.0995 23.287 6.01231 23.1998C5.92466 23.1126 5.80419 23.0625 5.68091 23.0625Z" fill="#55AB60"/>
</svg>
