<svg width="54" height="107" viewBox="0 0 54 107" fill="none" xmlns="http://www.w3.org/2000/svg">
<path d="M44.7882 107L7.9782 106.833C5.85245 106.821 3.81826 105.978 2.32238 104.488C0.826497 102.999 -0.00875128 100.984 6.91557e-05 98.8875L0.390683 7.87271C0.395028 6.83395 0.606888 5.80622 1.01416 4.84827C1.42143 3.89031 2.01613 3.02092 2.76425 2.28979C3.51238 1.55865 4.39926 0.980105 5.3742 0.587226C6.34915 0.194348 7.39304 -0.00516092 8.4462 0.000101452L45.2525 0.167294C47.3782 0.177874 49.4128 1.02018 50.9094 2.50922C52.4059 3.99826 53.2421 6.01229 53.2343 8.10896L52.8437 99.1201C52.8393 100.159 52.6275 101.187 52.2203 102.146C51.8131 103.104 51.2186 103.974 50.4705 104.706C49.7225 105.437 48.8357 106.017 47.8607 106.41C46.8857 106.804 45.8417 107.004 44.7882 107Z" fill="#455A64"/>
</svg>
