<svg width="20" height="16" viewBox="0 0 20 16" fill="none" xmlns="http://www.w3.org/2000/svg">
<path d="M16.426 4.36363H3.28547V2.90909H16.426V4.36363ZM14.7834 0H4.92804V1.45454H14.7834V0Z" fill="#55AB60"/>
<path d="M8.4678 13.8909L5.75757 11.4909L6.90737 10.4727L8.4678 11.8545L12.8206 7.99998L13.9704 9.01817L8.4678 13.8909Z" fill="#55AB60"/>
<path d="M18.0682 5.8182H1.64256C1.20693 5.8182 0.789136 5.97144 0.481096 6.24422C0.173055 6.517 0 6.88697 0 7.27274L0 14.5455C0 14.9312 0.173055 15.3012 0.481096 15.574C0.789136 15.8468 1.20693 16 1.64256 16H18.0682C18.5038 16 18.9216 15.8468 19.2297 15.574C19.5377 15.3012 19.7108 14.9312 19.7108 14.5455V7.27274C19.7108 6.88697 19.5377 6.517 19.2297 6.24422C18.9216 5.97144 18.5038 5.8182 18.0682 5.8182ZM18.0682 14.5455H1.64256V7.27274H18.0682V14.5455Z" fill="#55AB60"/>
</svg>
