<svg width="31" height="37" viewBox="0 0 31 37" fill="none" xmlns="http://www.w3.org/2000/svg">
<path d="M21.8148 7.69382L19.8982 8.36922L19.0757 5.89889C17.5647 1.34364 12.7491 -1.0753 8.32416 0.462692C3.89924 2.00068 1.5435 6.9964 3.05445 11.5516L3.87691 14.022L1.95287 14.701C1.2192 14.9817 0.623413 15.5305 0.289344 16.2332C-0.0447253 16.936 -0.0913777 17.7387 0.159088 18.4744L5.49206 34.5481C5.60276 34.9124 5.78656 35.2509 6.03255 35.5437C6.27853 35.8365 6.58168 36.0776 6.92398 36.2525C7.26627 36.4275 7.64073 36.5328 8.02511 36.5623C8.40949 36.5917 8.79594 36.5446 9.1615 36.4238L29.0234 29.4166C29.7668 29.1364 30.371 28.5828 30.709 27.8722C31.047 27.1616 31.0925 26.3494 30.8358 25.6065L25.4991 9.53281C25.3855 9.16958 25.1989 8.83264 24.9504 8.5421C24.7019 8.25156 24.3967 8.01336 24.0528 7.84173C23.7089 7.6701 23.3336 7.56855 22.949 7.54314C22.5645 7.51772 22.1788 7.56897 21.8148 7.69382ZM6.6755 10.2633C6.2681 9.07883 6.34124 7.78485 6.87958 6.65241C7.41793 5.51998 8.37971 4.63697 9.56343 4.18838C10.1479 3.99113 10.7667 3.91203 11.3829 3.9558C11.9991 3.99957 12.6 4.16532 13.1498 4.44314C13.6996 4.72097 14.1871 5.10519 14.5831 5.57287C14.9791 6.04055 15.2755 6.58212 15.4546 7.16525L16.2734 9.63558L7.49425 12.7336L6.6755 10.2633ZM17.8401 24.5273L19.2022 28.6311C19.2272 28.7133 19.2192 28.802 19.1797 28.8785C19.1402 28.9551 19.0723 29.0137 18.9901 29.0422L17.081 29.7139C17.005 29.7347 16.9238 29.7256 16.8544 29.6887C16.785 29.6517 16.7329 29.5897 16.7088 29.5157L15.3355 25.4303C14.5783 25.3896 13.8518 25.1217 13.2532 24.6625C12.6546 24.2033 12.2125 23.5747 11.9862 22.8608C11.6625 21.9171 11.7215 20.8864 12.1509 19.9847C12.5803 19.0829 13.3468 18.3799 14.2898 18.023C14.7554 17.8661 15.2483 17.8032 15.739 17.8382C16.2298 17.8731 16.7084 18.0052 17.1463 18.2265C17.5843 18.4477 17.9725 18.7537 18.288 19.1261C18.6035 19.4985 18.8397 19.9298 18.9827 20.3942C19.2221 21.1193 19.2419 21.8976 19.0396 22.6337C18.8374 23.3698 18.4218 24.0317 17.8439 24.5383L17.8401 24.5273Z" fill="#55AB60"/>
<path d="M19.8119 8.32532C19.8119 8.37671 16.2578 9.69446 11.8366 11.2618C7.41544 12.8292 3.80925 14.0882 3.79064 14.0515C3.77203 14.0148 7.34472 12.686 11.7696 11.115C16.1946 9.54396 19.7933 8.2776 19.8119 8.32532Z" fill="#263238"/>
<path d="M24.0326 9.00069C24.049 9.03254 24.0627 9.06569 24.0735 9.09979C24.1033 9.17321 24.1368 9.26864 24.1814 9.3861C24.2782 9.65406 24.4122 10.0248 24.5796 10.4873L26.0087 14.591C26.6042 16.3309 27.315 18.3938 28.1039 20.6843C28.4761 21.8332 28.9152 23.0298 29.3246 24.2888C29.5437 24.9376 29.6384 25.621 29.6037 26.304C29.5722 26.6592 29.4697 27.0048 29.3023 27.3208C29.1234 27.6357 28.8846 27.9137 28.5989 28.1393C28.0239 28.5533 27.3858 28.8742 26.7084 29.09L24.7918 29.7691L21.1633 31.0501L15.019 33.2084L10.8695 34.6473L9.75299 35.0144L9.45526 35.1098C9.42343 35.1238 9.38949 35.1325 9.35479 35.1355C9.35479 35.1355 9.38456 35.1355 9.44783 35.0915L9.73811 34.9777L10.8546 34.5629L14.9818 33.0653L21.1149 30.8629L24.7359 29.5709L26.6525 28.8881C27.3107 28.6811 27.9303 28.3699 28.4873 27.9668C28.7531 27.7574 28.9755 27.4994 29.1423 27.207C29.2999 26.9147 29.3949 26.5936 29.4214 26.2636C29.4556 25.6056 29.3648 24.947 29.1534 24.3219C28.7515 23.0739 28.3272 21.8662 27.9439 20.7173C27.1698 18.4232 26.4553 16.3529 25.8896 14.6131C25.3239 12.8732 24.8476 11.4747 24.5201 10.491C24.3638 10.0101 24.2447 9.63571 24.1479 9.36408L24.0586 9.07043C24.0474 9.04819 24.0386 9.0248 24.0326 9.00069Z" fill="#263238"/>
<path d="M13.5526 3.93885C13.5526 3.93885 13.3554 3.84341 12.9907 3.69659C12.4708 3.49957 11.921 3.39037 11.3644 3.37357C10.5393 3.34567 9.7182 3.49861 8.96026 3.82139C8.03858 4.22331 7.25048 4.87341 6.6864 5.69708C6.11855 6.51839 5.81387 7.48898 5.81184 8.48308C5.81959 9.29786 5.9449 10.1074 6.18399 10.8873C6.37751 11.5554 6.57847 12.0876 6.71245 12.4584C6.79148 12.6467 6.85617 12.8405 6.90597 13.0383C6.80026 12.8623 6.71177 12.6767 6.64173 12.4841C6.48915 12.117 6.26959 11.5958 6.05374 10.924C5.78878 10.1359 5.64453 9.3132 5.62576 8.48308C5.61584 7.45142 5.92764 6.44168 6.51893 5.59063C7.10268 4.73688 7.92299 4.06667 8.88211 3.65988C9.66369 3.33533 10.5104 3.19217 11.3569 3.24143C11.9257 3.27002 12.4843 3.40062 13.0056 3.62684C13.1449 3.69026 13.2793 3.76388 13.4075 3.84708C13.4604 3.87002 13.5094 3.90098 13.5526 3.93885Z" fill="#263238"/>
<path d="M13.7241 18.302C13.7835 18.2665 13.8457 18.2358 13.9101 18.2103C14.0964 18.1273 14.2894 18.0598 14.487 18.0084C14.8007 17.9171 15.1242 17.8628 15.4509 17.8469C15.8952 17.8233 16.3397 17.8895 16.7571 18.0414C17.7098 18.3718 18.5844 19.3298 19.0161 20.6108C19.2231 21.2983 19.2231 22.0303 19.0161 22.7178C18.7865 23.4639 18.3751 24.1432 17.8178 24.6963L17.8401 24.5971C18.3351 25.9369 18.8747 27.3905 19.4329 28.9065L19.4664 28.9982L19.3734 29.0313L18.5211 29.3102L16.6604 29.9232L16.5673 29.9526L16.5375 29.8608C16.0277 28.3412 15.4695 26.9243 15.0489 25.5332L15.1308 25.5956C14.4033 25.5359 13.7096 25.2666 13.1361 24.8211C12.6172 24.4269 12.1917 23.9258 11.8893 23.3528C11.6165 22.8446 11.4807 22.2759 11.4949 21.701C11.5121 21.1135 11.6608 20.537 11.9304 20.0129C12.2 19.4887 12.5837 19.0298 13.0542 18.6691C13.2478 18.514 13.4651 18.3902 13.698 18.302C13.4878 18.425 13.2841 18.5586 13.0877 18.7021C12.5709 19.1334 12.1749 19.6882 11.9377 20.3135C11.7341 20.7851 11.6389 21.2952 11.6588 21.8074C11.6788 22.3195 11.8134 22.821 12.0531 23.2757C12.3504 23.827 12.7656 24.3079 13.27 24.6852C13.8171 25.1087 14.4785 25.3641 15.1717 25.4194H15.235L15.2536 25.4744C15.663 26.8399 16.2249 28.2678 16.7422 29.7947L16.6194 29.736L18.4802 29.123L19.3287 28.8404L19.2692 28.9652C18.7147 27.4492 18.1788 25.992 17.6875 24.6522V24.5971L17.7322 24.5531C18.2732 24.023 18.6766 23.372 18.9082 22.6554C19.1056 21.9978 19.1056 21.2978 18.9082 20.6402C18.5025 19.4069 17.6652 18.4709 16.7571 18.1405C16.3552 17.9876 15.9261 17.9165 15.4955 17.9313C15.1741 17.9386 14.8544 17.9817 14.5428 18.0598C13.9883 18.1956 13.7278 18.3204 13.7241 18.302Z" fill="#263238"/>
</svg>
