<svg width="49" height="100" viewBox="0 0 49 100" fill="none" xmlns="http://www.w3.org/2000/svg">
<path d="M42.7251 0.123612H35.5944C35.3617 0.127865 35.1322 0.177288 34.9189 0.269054C34.7056 0.360821 34.5127 0.493134 34.3513 0.658436C34.1899 0.823739 34.063 1.01879 33.978 1.23245C33.893 1.44612 33.8515 1.6742 33.8559 1.90368V3.17879C33.8603 3.40809 33.8188 3.636 33.7338 3.84945C33.6487 4.06291 33.5218 4.25772 33.3603 4.42273C33.1989 4.58774 33.006 4.71971 32.7927 4.81109C32.5794 4.90246 32.35 4.95144 32.1175 4.95522L18.2171 4.89346C17.7469 4.8811 17.3008 4.68516 16.977 4.34868C16.6531 4.0122 16.4778 3.56269 16.4897 3.09887V1.82376C16.5016 1.36055 16.3268 0.911573 16.0038 0.575197C15.6807 0.23882 15.2356 0.0424686 14.766 0.0291585H12.2577L6.01471 9.82609e-05C4.52979 -0.00862179 3.10187 0.563359 2.04361 1.5908C0.985342 2.61825 0.382968 4.01742 0.368378 5.48198L5.95281e-05 94.2747C-0.00333405 95.0012 0.138399 95.7213 0.417172 96.3939C0.695945 97.0664 1.1063 97.6782 1.6248 98.1944C2.14329 98.7105 2.75978 99.1208 3.43907 99.4019C4.11835 99.6831 4.84712 99.8295 5.58378 99.8328L42.2978 99.9999C43.0349 100.003 43.7655 99.8634 44.4478 99.5882C45.1302 99.3131 45.7509 98.9081 46.2745 98.3964C46.7981 97.8846 47.2144 97.2762 47.4996 96.6057C47.7848 95.9353 47.9334 95.216 47.9368 94.489L48.3051 5.69631C48.3139 4.22763 47.7311 2.8156 46.6847 1.77061C45.6384 0.725624 44.2141 0.133217 42.7251 0.123612Z" fill="white"/>
</svg>
