<svg width="38" height="7" viewBox="0 0 38 7" fill="none" xmlns="http://www.w3.org/2000/svg">
<path d="M37.34 6.39569C37.4143 6.38828 37.4873 6.37119 37.5571 6.34488C37.659 6.3056 37.7475 6.23878 37.8126 6.15211C37.8777 6.06543 37.9167 5.9624 37.9251 5.85486C37.9251 5.27772 37.9251 4.43562 37.9251 3.35395C37.9251 2.81312 37.9251 2.20694 37.9251 1.53907C37.9251 1.37573 37.9251 1.20513 37.9251 1.03453C37.9491 0.868992 37.9126 0.700438 37.8221 0.559033C37.7714 0.491233 37.7055 0.435948 37.6295 0.397528C37.5535 0.359108 37.4695 0.338601 37.3841 0.337618H36.81H31.4923L0.711845 0.225096C0.633059 0.223775 0.555117 0.241233 0.48464 0.27599C0.414162 0.310746 0.353236 0.361776 0.307036 0.424734C0.218167 0.566712 0.18419 0.73554 0.211349 0.900232C0.211349 1.26321 0.211349 1.62618 0.211349 1.98916C0.211349 2.71511 0.211349 3.44107 0.211349 4.16702C0.211349 4.53 0.211349 4.89297 0.211349 5.25595C0.196083 5.425 0.196083 5.59506 0.211349 5.76411C0.230682 5.83659 0.266616 5.90373 0.31638 5.96036C0.366143 6.01699 0.428409 6.06162 0.498397 6.09079C0.570911 6.11926 0.648552 6.13285 0.726568 6.13072H2.59974L10.7733 6.17428L24.6105 6.25776L33.9396 6.33035L36.4752 6.35939H37.1339C37.2848 6.35939 37.3584 6.35939 37.3584 6.35939H37.1339H36.4752H33.9396H24.6105L10.7733 6.31584L2.59974 6.28317H0.726568C0.623479 6.28728 0.520663 6.26997 0.424796 6.23236C0.327895 6.19157 0.241719 6.12949 0.172839 6.05086C0.103959 5.97222 0.0541943 5.87912 0.0273438 5.77863C0.00604053 5.68337 -0.00139348 5.58559 0.00526402 5.48825V5.21965C0.00526402 4.85667 0.00526402 4.4937 0.00526402 4.13072C0.00526402 3.40477 0.00526402 2.67881 0.00526402 1.95286C0.00526402 1.58988 0.00526402 1.22691 0.00526402 0.863932C-0.00175467 0.767262 -0.00175467 0.67022 0.00526402 0.57355C0.019054 0.466777 0.0609216 0.365419 0.126708 0.27954C0.190194 0.191923 0.274218 0.120748 0.371619 0.0720814C0.469019 0.0234152 0.57691 -0.00129397 0.686087 5.21997e-05L31.4665 0.167018L36.7843 0.203318H37.3584C37.4595 0.203395 37.5592 0.227516 37.6489 0.273641C37.7385 0.319767 37.8156 0.386535 37.8736 0.468289C37.9774 0.626099 38.0192 0.815799 37.9914 1.00186C37.9914 1.17246 37.9914 1.34306 37.9914 1.5064C37.9914 2.16702 37.9914 2.77319 37.9914 3.32128C37.9914 4.41021 37.9656 5.24506 37.9582 5.82582C37.9492 5.93748 37.9081 6.04429 37.8396 6.13367C37.7712 6.22306 37.6783 6.29129 37.5718 6.33035C37.5022 6.37292 37.4219 6.39555 37.34 6.39569Z" fill="#E0E0E0"/>
</svg>
