<svg width="15" height="24" viewBox="0 0 15 24" fill="none" xmlns="http://www.w3.org/2000/svg">
<path d="M7.5 0C3.357 0 0 3.34559 0 7.48968C0 14.6552 7.5 24 7.5 24C7.5 24 15 14.6537 15 7.48968C15 3.34709 11.643 0 7.5 0ZM7.5 11.6338C6.42587 11.6338 5.39574 11.2068 4.63622 10.4468C3.8767 9.68682 3.45 8.65604 3.45 7.58124C3.45 6.50644 3.8767 5.47566 4.63622 4.71566C5.39574 3.95567 6.42587 3.52871 7.5 3.52871C8.57413 3.52871 9.60426 3.95567 10.3638 4.71566C11.1233 5.47566 11.55 6.50644 11.55 7.58124C11.55 8.65604 11.1233 9.68682 10.3638 10.4468C9.60426 11.2068 8.57413 11.6338 7.5 11.6338Z" fill="#55AB60"/>
</svg>
