<svg width="12" height="12" viewBox="0 0 12 12" fill="none" xmlns="http://www.w3.org/2000/svg">
<path d="M6.9797 5.96697L11.8397 1.10697C11.9489 0.979437 12.006 0.815386 11.9995 0.647602C11.993 0.479818 11.9235 0.320659 11.8047 0.201929C11.686 0.0831994 11.5268 0.0136441 11.3591 0.00716337C11.1913 0.000682604 11.0272 0.0577536 10.8997 0.166971L6.0397 5.02697L1.1797 0.160304C1.05216 0.0510868 0.888111 -0.00598358 0.720327 0.00049719C0.552543 0.00697796 0.393384 0.0765326 0.274654 0.195262C0.155924 0.313992 0.086369 0.473151 0.0798883 0.640935C0.0734075 0.808719 0.130479 0.97277 0.239696 1.1003L5.0997 5.96697L0.233029 10.827C0.163241 10.8867 0.106561 10.9603 0.0665457 11.043C0.0265302 11.1257 0.00404312 11.2158 0.000496786 11.3076C-0.00304954 11.3994 0.0124211 11.491 0.0459375 11.5765C0.0794538 11.6621 0.130293 11.7398 0.195263 11.8047C0.260232 11.8697 0.337931 11.9205 0.423481 11.9541C0.509031 11.9876 0.600586 12.003 0.692398 11.9995C0.784211 11.996 0.874299 11.9735 0.957009 11.9335C1.03972 11.8934 1.11326 11.8368 1.17303 11.767L6.0397 6.90697L10.8997 11.767C11.0272 11.8762 11.1913 11.9333 11.3591 11.9268C11.5268 11.9203 11.686 11.8507 11.8047 11.732C11.9235 11.6133 11.993 11.4541 11.9995 11.2863C12.006 11.1186 11.9489 10.9545 11.8397 10.827L6.9797 5.96697Z" fill="black"/>
</svg>
