<svg width="20" height="18" viewBox="0 0 20 18" fill="none" xmlns="http://www.w3.org/2000/svg">
<path d="M17.3834 7.65267C17.3834 5.82707 16.6054 4.07624 15.2205 2.78534C13.8356 1.49444 11.9573 0.769226 9.9988 0.769226C8.04029 0.769226 6.16199 1.49444 4.77712 2.78534C3.39224 4.07624 2.61423 5.82707 2.61423 7.65267" stroke="#55AB60" stroke-width="1.5" stroke-linecap="round" stroke-linejoin="round"/>
<path d="M0.769226 11.4713V9.85708C0.769288 9.47334 0.906951 9.10062 1.16034 8.79818C1.41372 8.49573 1.76829 8.2809 2.16768 8.18785L3.77382 7.8127C3.85544 7.79375 3.94061 7.79238 4.02288 7.80869C4.10514 7.825 4.18235 7.85856 4.24863 7.90682C4.31491 7.95509 4.36852 8.01679 4.40541 8.08725C4.44229 8.15771 4.46148 8.23507 4.46151 8.31347V13.014C4.46166 13.0926 4.44256 13.1701 4.40568 13.2408C4.36881 13.3114 4.31512 13.3733 4.24871 13.4217C4.1823 13.47 4.10492 13.5037 4.02246 13.5199C3.94001 13.5362 3.85465 13.5348 3.7729 13.5156L2.16676 13.1413C1.76753 13.0481 1.41318 12.8332 1.15997 12.5308C0.906768 12.2284 0.769237 11.8557 0.769226 11.4721V11.4713Z" stroke="#55AB60" stroke-width="1.5"/>
<path d="M19.2308 11.4713V9.85708C19.2307 9.47334 19.0931 9.10062 18.8397 8.79818C18.5863 8.49573 18.2317 8.2809 17.8323 8.18785L16.2262 7.8127C16.1446 7.79375 16.0594 7.79238 15.9771 7.80869C15.8949 7.825 15.8177 7.85856 15.7514 7.90682C15.6851 7.95509 15.6315 8.01679 15.5946 8.08725C15.5577 8.15771 15.5385 8.23507 15.5385 8.31347V13.014C15.5384 13.0925 15.5575 13.1699 15.5943 13.2405C15.6311 13.3111 15.6847 13.3729 15.751 13.4212C15.8173 13.4696 15.8946 13.5032 15.9769 13.5196C16.0593 13.536 16.1445 13.5346 16.2262 13.5156L17.8323 13.1413C18.2317 13.0483 18.5863 12.8335 18.8397 12.531C19.0931 12.2286 19.2307 11.8559 19.2308 11.4721V11.4713Z" stroke="#55AB60" stroke-width="1.5"/>
<path d="M17.3841 13.6757V14.1059C17.3841 14.5623 17.1896 15 16.8434 15.3227C16.4972 15.6454 16.0276 15.8267 15.538 15.8267H12.3072" stroke="#55AB60" stroke-width="1.5"/>
<path d="M11.3843 17.1174H8.61513C8.24791 17.1174 7.89573 16.9814 7.63607 16.7394C7.3764 16.4974 7.23052 16.1691 7.23052 15.8268C7.23052 15.4845 7.3764 15.1562 7.63607 14.9142C7.89573 14.6721 8.24791 14.5361 8.61513 14.5361H11.3843C11.7516 14.5361 12.1037 14.6721 12.3634 14.9142C12.6231 15.1562 12.769 15.4845 12.769 15.8268C12.769 16.1691 12.6231 16.4974 12.3634 16.7394C12.1037 16.9814 11.7516 17.1174 11.3843 17.1174Z" stroke="#55AB60" stroke-width="1.5"/>
</svg>
