<svg width="157" height="134" viewBox="0 0 157 134" fill="none" xmlns="http://www.w3.org/2000/svg">
<path d="M157 102.272H96.7705V67.8947H157V102.272ZM97.138 101.909H156.633V68.2572H97.138V101.909Z" fill="#E0E0E0"/>
<path d="M144.575 86.2248H104.837V87.374H144.575V86.2248Z" fill="#F0F0F0"/>
<path d="M147.313 90.5092H104.837V91.7635H147.313V90.5092Z" fill="#F0F0F0"/>
<path d="M147.313 94.8444H104.837V96.0987H147.313V94.8444Z" fill="#F0F0F0"/>
<path d="M118.725 80.0012H104.837V82.9849H118.725V80.0012Z" fill="#F0F0F0"/>
<path d="M156.816 68.0759H96.9648V73.5492H156.816V68.0759Z" fill="#E0E0E0"/>
<path d="M152.211 72.7306C152.134 72.6581 152.905 71.7409 153.931 70.6823C154.956 69.6237 155.857 68.8225 155.93 68.8914C156.004 68.9603 155.235 69.8811 154.21 70.9433C153.185 72.0056 152.284 72.8031 152.211 72.7306Z" fill="white"/>
<path d="M155.938 72.7306C155.864 72.8031 154.968 72.0055 153.939 70.9433C152.91 69.8811 152.142 68.9639 152.219 68.8914C152.296 68.8188 153.189 69.6164 154.218 70.6823C155.247 71.7481 156.008 72.6581 155.938 72.7306Z" fill="white"/>
<path d="M82.8858 0H23.0347V34.018H82.8858V0Z" fill="#E6E6E6"/>
<path d="M70.6484 18.1526H30.9106V19.3019H70.6484V18.1526Z" fill="#F0F0F0"/>
<path d="M73.3863 22.437H30.9106V23.6914H73.3863V22.437Z" fill="#F0F0F0"/>
<path d="M73.3863 26.7722H30.9106V28.0266H73.3863V26.7722Z" fill="#F0F0F0"/>
<path d="M44.7985 11.9289H30.9106V14.9126H44.7985V11.9289Z" fill="#F0F0F0"/>
<path d="M82.8858 0H23.0347V5.47331H82.8858V0Z" fill="#E0E0E0"/>
<path d="M78.079 4.62966C78.0019 4.56078 78.7736 3.63994 79.799 2.58134C80.8243 1.52274 81.7247 0.721541 81.7982 0.794048C81.8717 0.866554 81.1036 1.78376 80.0782 2.84236C79.0529 3.90096 78.1525 4.69491 78.079 4.62966Z" fill="white"/>
<path d="M81.7982 4.62957C81.7247 4.70207 80.828 3.9045 79.799 2.84227C78.77 1.78004 78.0019 0.866451 78.0791 0.793944C78.1562 0.721437 79.0493 1.51901 80.0783 2.58124C81.1073 3.64347 81.8754 4.56069 81.7982 4.62957Z" fill="white"/>
<path d="M60.2186 63.1933H0V28.8128H60.2186V63.1933ZM0.3675 62.8308H59.8511V29.1753H0.3675V62.8308Z" fill="#E0E0E0"/>
<path d="M47.7974 47.1467H8.05957V48.2959H47.7974V47.1467Z" fill="#F0F0F0"/>
<path d="M50.5353 51.4312H8.05957V52.6855H50.5353V51.4312Z" fill="#F0F0F0"/>
<path d="M50.5353 55.7664H8.05957V57.0207H50.5353V55.7664Z" fill="#F0F0F0"/>
<path d="M21.9474 40.9232H8.05957V43.9068H21.9474V40.9232Z" fill="#F0F0F0"/>
<path d="M60.0352 28.9941H0.184082V34.4675H60.0352V28.9941Z" fill="#E0E0E0"/>
<path d="M129.717 71.0699H59.0464V133.473H129.717V71.0699Z" fill="#E6E6E6"/>
<path d="M62.6 51.413H7.23975V108.143H62.6V51.413Z" fill="#F0F0F0"/>
<path d="M62.6 51.413H7.23975V57.5932H62.6V51.413Z" fill="#E0E0E0"/>
<path d="M11.8117 54.4398C11.8016 54.664 11.725 54.8803 11.5915 55.0619C11.4579 55.2435 11.2732 55.3824 11.0603 55.4614C10.8474 55.5404 10.6157 55.5559 10.3939 55.5062C10.1722 55.4564 9.97008 55.3435 9.81277 55.1814C9.65547 55.0194 9.54986 54.8153 9.50907 54.5946C9.46827 54.3738 9.49408 54.1461 9.58329 53.9397C9.6725 53.7334 9.82117 53.5574 10.0109 53.4336C10.2006 53.3098 10.423 53.2437 10.6504 53.2435C10.9649 53.2511 11.2636 53.3812 11.4812 53.6053C11.6988 53.8295 11.8176 54.1295 11.8117 54.4398Z" fill="white"/>
<path d="M16.5267 54.4398C16.5174 54.6651 16.4411 54.8826 16.3073 55.0653C16.1736 55.2481 15.9883 55.388 15.7746 55.4677C15.5609 55.5474 15.3281 55.5633 15.1053 55.5135C14.8824 55.4637 14.6793 55.3503 14.5213 55.1875C14.3633 55.0247 14.2573 54.8197 14.2165 54.5979C14.1757 54.3761 14.2019 54.1474 14.2919 53.9402C14.3818 53.733 14.5316 53.5565 14.7224 53.4326C14.9133 53.3087 15.1369 53.243 15.3654 53.2435C15.6799 53.2511 15.9786 53.3812 16.1962 53.6053C16.4138 53.8295 16.5326 54.1295 16.5267 54.4398Z" fill="white"/>
<path d="M21.2416 54.4398C21.2322 54.6651 21.1559 54.8826 21.0222 55.0653C20.8884 55.2481 20.7032 55.388 20.4894 55.4677C20.2757 55.5474 20.0429 55.5633 19.8201 55.5135C19.5973 55.4637 19.3942 55.3503 19.2362 55.1875C19.0781 55.0247 18.9721 54.8197 18.9313 54.5979C18.8905 54.3761 18.9167 54.1474 19.0067 53.9402C19.0967 53.733 19.2464 53.5565 19.4373 53.4326C19.6282 53.3087 19.8518 53.243 20.0803 53.2435C20.3948 53.2511 20.6935 53.3812 20.9111 53.6053C21.1287 53.8295 21.2475 54.1295 21.2416 54.4398Z" fill="white"/>
<path d="M149.095 12.4074H78.4243V81.8788H149.095V12.4074Z" fill="#F0F0F0"/>
<path d="M149.095 12.4074H78.4243V20.5449H149.095V12.4074Z" fill="#E0E0E0"/>
<path d="M84.4444 16.3948C84.4314 16.6907 84.3307 16.9763 84.1546 17.2162C83.9785 17.4561 83.7349 17.6397 83.454 17.7441C83.1731 17.8486 82.8672 17.8694 82.5744 17.8039C82.2817 17.7384 82.0148 17.5895 81.8071 17.3757C81.5993 17.1619 81.4598 16.8927 81.4058 16.6013C81.3519 16.31 81.3858 16.0094 81.5035 15.737C81.6212 15.4645 81.8174 15.2322 82.0678 15.0688C82.3182 14.9053 82.6117 14.8181 82.9119 14.8178C83.3268 14.8273 83.721 14.9986 84.0083 15.2942C84.2955 15.5897 84.4523 15.9855 84.4444 16.3948Z" fill="white"/>
<path d="M90.2033 15.3289C90.407 15.5472 90.5411 15.8198 90.5889 16.1127C90.6367 16.4056 90.5961 16.706 90.4721 16.9763C90.3481 17.2466 90.1462 17.4749 89.8916 17.6328C89.637 17.7908 89.3409 17.8713 89.0402 17.8644C88.7395 17.8574 88.4475 17.7634 88.2006 17.5939C87.9538 17.4245 87.7629 17.1871 87.6518 16.9114C87.5407 16.6356 87.5143 16.3338 87.5759 16.0434C87.6376 15.7529 87.7844 15.4868 87.9983 15.2782C88.2978 14.997 88.6981 14.8445 89.1114 14.854C89.5247 14.8635 89.9174 15.0343 90.2033 15.3289Z" fill="white"/>
<path d="M96.8584 16.3948C96.8455 16.6907 96.7447 16.9763 96.5686 17.2162C96.3926 17.4561 96.149 17.6397 95.868 17.7441C95.5871 17.8486 95.2813 17.8694 94.9885 17.8039C94.6957 17.7384 94.4289 17.5895 94.2211 17.3757C94.0134 17.1619 93.8739 16.8927 93.8199 16.6013C93.7659 16.31 93.7999 16.0094 93.9176 15.737C94.0353 15.4645 94.2315 15.2322 94.4819 15.0688C94.7322 14.9053 95.0258 14.8181 95.326 14.8178C95.7409 14.8273 96.1351 14.9986 96.4223 15.2942C96.7095 15.5897 96.8663 15.9855 96.8584 16.3948Z" fill="white"/>
</svg>
