<svg width="15" height="8" viewBox="0 0 15 8" fill="none" xmlns="http://www.w3.org/2000/svg">
<path d="M7.48823 7.45041C7.23833 7.4509 6.99614 7.3643 6.80371 7.20566L0.38638 1.88489C0.167958 1.70426 0.0306013 1.4447 0.00452583 1.16331C-0.0215497 0.881917 0.0657923 0.601746 0.247337 0.384428C0.428882 0.16711 0.689759 0.0304468 0.972578 0.00450299C1.2554 -0.0214408 1.53699 0.0654595 1.75541 0.246087L7.48823 5.0135L13.2211 0.416353C13.3305 0.327958 13.4563 0.261947 13.5915 0.222114C13.7266 0.18228 13.8683 0.169411 14.0084 0.184244C14.1486 0.199078 14.2844 0.241321 14.4081 0.308548C14.5318 0.375775 14.6409 0.466659 14.7291 0.575976C14.8271 0.685393 14.9013 0.813759 14.947 0.953028C14.9928 1.0923 15.0092 1.23947 14.9951 1.38533C14.981 1.53118 14.9369 1.67258 14.8653 1.80066C14.7938 1.92874 14.6964 2.04074 14.5794 2.12964L8.16205 7.2695C7.96409 7.40307 7.72685 7.46677 7.48823 7.45041Z" fill="black"/>
</svg>
