<svg width="30" height="30" viewBox="0 0 30 30" fill="none" xmlns="http://www.w3.org/2000/svg">
<path d="M15 0C6.71652 0 0 6.71652 0 15C0 23.2835 6.71652 30 15 30C23.2835 30 30 23.2835 30 15C30 6.71652 23.2835 0 15 0ZM21.4286 15.8036C21.4286 15.9509 21.308 16.0714 21.1607 16.0714H16.0714V21.1607C16.0714 21.308 15.9509 21.4286 15.8036 21.4286H14.1964C14.0491 21.4286 13.9286 21.308 13.9286 21.1607V16.0714H8.83929C8.69196 16.0714 8.57143 15.9509 8.57143 15.8036V14.1964C8.57143 14.0491 8.69196 13.9286 8.83929 13.9286H13.9286V8.83929C13.9286 8.69196 14.0491 8.57143 14.1964 8.57143H15.8036C15.9509 8.57143 16.0714 8.69196 16.0714 8.83929V13.9286H21.1607C21.308 13.9286 21.4286 14.0491 21.4286 14.1964V15.8036Z" fill="#55AB60"/>
</svg>
