<svg width="24" height="24" viewBox="0 0 24 24" fill="none" xmlns="http://www.w3.org/2000/svg">
<path d="M16.001 17.0566L18.0677 14.9892C18.346 14.7142 18.6982 14.5259 19.0814 14.4473C19.4646 14.3686 19.8625 14.403 20.2265 14.5461L22.7453 15.5522C23.1132 15.7016 23.4287 15.9566 23.652 16.2851C23.8753 16.6136 23.9964 17.0009 24 17.3981V22.013C23.9979 22.2833 23.9411 22.5502 23.8331 22.7979C23.7251 23.0456 23.5681 23.2689 23.3715 23.4543C23.175 23.6397 22.943 23.7834 22.6895 23.8767C22.436 23.9701 22.1662 24.0111 21.8965 23.9974C4.24704 22.8991 0.685788 7.94686 0.0122868 2.22441C-0.0189776 1.9434 0.0095878 1.65895 0.0961037 1.38977C0.18262 1.1206 0.325125 0.872797 0.514246 0.662676C0.703366 0.452554 0.934815 0.284873 1.19337 0.170663C1.45192 0.0564526 1.73171 -0.0016975 2.01434 3.77211e-05H6.47052C6.86817 0.00121524 7.25637 0.121379 7.5852 0.345073C7.91403 0.568768 8.16845 0.885763 8.31573 1.25529L9.32136 3.77501C9.46922 4.1378 9.50694 4.53614 9.42982 4.92025C9.3527 5.30436 9.16415 5.65723 8.88774 5.93478L6.82111 8.00224C6.82111 8.00224 8.01127 16.0598 16.001 17.0566Z" fill="#55AB60"/>
</svg>
