<svg width="30" height="30" viewBox="0 0 30 30" fill="none" xmlns="http://www.w3.org/2000/svg">
<path d="M21.4673 13.8751H8.52979C8.3751 13.8751 8.24854 14.0016 8.24854 14.1562V15.843C8.24854 15.9976 8.3751 16.1242 8.52979 16.1242H21.4673C21.622 16.1242 21.7485 15.9976 21.7485 15.843V14.1562C21.7485 14.0016 21.622 13.8751 21.4673 13.8751Z" fill="#55AB60"/>
<path d="M15 0C6.71652 0 0 6.71652 0 15C0 23.2835 6.71652 30 15 30C23.2835 30 30 23.2835 30 15C30 6.71652 23.2835 0 15 0ZM15 27.4554C8.12277 27.4554 2.54464 21.8772 2.54464 15C2.54464 8.12277 8.12277 2.54464 15 2.54464C21.8772 2.54464 27.4554 8.12277 27.4554 15C27.4554 21.8772 21.8772 27.4554 15 27.4554Z" fill="#55AB60"/>
</svg>
