<svg width="12" height="87" viewBox="0 0 12 87" fill="none" xmlns="http://www.w3.org/2000/svg">
<path d="M7.9899 5.44024L10.6162 2.87247C10.9317 2.55718 11.1073 2.13294 11.1049 1.69185C11.1024 1.25076 10.9221 0.828418 10.6031 0.516515C10.284 0.204612 9.85208 0.0283224 9.40092 0.0259122C8.94977 0.0235019 8.51585 0.195166 8.19337 0.503642L5.56703 3.07141L2.94069 0.503642C2.78224 0.345301 2.59324 0.219262 2.38463 0.132815C2.17602 0.0463688 1.95195 0.00123545 1.72538 2.5011e-05C1.49881 -0.00118543 1.27424 0.0415512 1.06468 0.125764C0.855117 0.209976 0.66472 0.33399 0.504509 0.490628C0.344297 0.647266 0.217455 0.833417 0.131322 1.03831C0.045188 1.24319 0.00147651 1.46275 0.00271456 1.68427C0.00395262 1.90579 0.0501155 2.12486 0.138534 2.32882C0.226953 2.53277 0.35587 2.71756 0.517823 2.87247L3.14416 5.44024L0.517823 8.008C0.20231 8.32329 0.026727 8.74754 0.0291922 9.18863C0.0316575 9.62972 0.211972 10.0521 0.53099 10.364C0.850008 10.6759 1.28198 10.8522 1.73313 10.8546C2.18429 10.857 2.6182 10.6853 2.94069 10.3768L5.56703 7.80907L8.19337 10.3768C8.51585 10.6853 8.94977 10.857 9.40092 10.8546C9.85208 10.8522 10.284 10.6759 10.6031 10.364C10.9221 10.0521 11.1024 9.62972 11.1049 9.18863C11.1073 8.74754 10.9317 8.32329 10.6162 8.008L7.9899 5.44024Z" fill="#BCB14C"/>
<path d="M7.98721 81.5856L10.6135 79.0179C10.9291 78.7026 11.1046 78.2783 11.1022 77.8373C11.0997 77.3962 10.9194 76.9738 10.6004 76.6619C10.2814 76.35 9.84939 76.1737 9.39823 76.1713C8.94708 76.1689 8.51316 76.3406 8.19068 76.649L5.56434 79.2168L2.938 76.649C2.77955 76.4907 2.59055 76.3647 2.38194 76.2782C2.17333 76.1918 1.94926 76.1466 1.72269 76.1454C1.49612 76.1442 1.27155 76.187 1.06199 76.2712C0.852428 76.3554 0.662031 76.4794 0.50182 76.636C0.341608 76.7927 0.214766 76.9788 0.128633 77.1837C0.042499 77.3886 -0.00121247 77.6082 2.55816e-05 77.8297C0.00126364 78.0512 0.0474265 78.2703 0.135845 78.4742C0.224264 78.6782 0.353181 78.863 0.515134 79.0179L3.14147 81.5856L0.515134 84.1534C0.199621 84.4687 0.024038 84.8929 0.0265033 85.334C0.0289685 85.7751 0.209283 86.1975 0.528301 86.5094C0.847319 86.8213 1.27929 86.9976 1.73044 87C2.1816 87.0024 2.61551 86.8307 2.938 86.5222L5.56434 83.9545L8.19068 86.5222C8.51316 86.8307 8.94708 87.0024 9.39823 87C9.84939 86.9976 10.2814 86.8213 10.6004 86.5094C10.9194 86.1975 11.0997 85.7751 11.1022 85.334C11.1046 84.8929 10.9291 84.4687 10.6135 84.1534L7.98721 81.5856Z" fill="#BCB14C"/>
</svg>
