<svg width="20" height="18" viewBox="0 0 20 18" fill="none" xmlns="http://www.w3.org/2000/svg">
<path d="M10 0C8.69231 0 7.69231 0.885533 7.69231 2.04354V6.13061C7.69231 7.28861 8.69231 8.17415 10 8.17415H14.6154L17.6923 10.8989V8.17415C19 8.17415 20 7.28861 20 6.13061V2.04354C20 0.885533 19 0 17.6923 0H10ZM13.2215 2.04354H14.5431L15.8415 6.13061H14.6877L14.3746 5.10884H13.2208L12.9331 6.13061H11.9231L13.2215 2.04354ZM13.8462 2.72472C13.7692 2.99719 13.6831 3.3296 13.6054 3.53396L13.39 4.42766H14.3031L14.0862 3.53327C13.9331 3.3296 13.8462 2.99719 13.8462 2.72472ZM2.30769 6.81179C1 6.81179 0 7.69732 0 8.85533V12.9424C0 14.1004 1 14.9859 2.30769 14.9859V17.7107L5.38461 14.9859H10C11.3077 14.9859 12.3077 14.1004 12.3077 12.9424V8.85533H10C8.53846 8.85533 7.38 7.96979 6.99538 6.81179H2.30769ZM5.84154 8.7913C7.14923 8.7913 7.76461 9.74495 7.76461 10.8348C7.76461 11.7885 7.39461 12.3934 6.77923 12.6658C7.08692 12.8021 7.45154 12.8743 7.83615 12.9424L7.54846 13.6236C7.01 13.4873 6.45154 13.2748 5.91308 13.0698C5.83615 13.0017 5.70154 13.0064 5.62461 13.0064C4.70154 12.9383 3.84615 12.2612 3.84615 10.8989C3.84615 9.74086 4.61077 8.7913 5.84154 8.7913ZM5.84154 9.5365C5.22615 9.5365 4.92769 10.1496 4.92769 10.8989C4.92769 11.7163 5.22615 12.2612 5.84154 12.2612C6.45692 12.2612 6.77846 11.6482 6.77846 10.8989C6.77846 10.1496 6.45692 9.5365 5.84154 9.5365Z" fill="#55AB60"/>
</svg>
