<svg width="39" height="54" viewBox="0 0 39 54" fill="none" xmlns="http://www.w3.org/2000/svg">
<path d="M30.3303 5.81178C31.1641 5.81328 31.9634 6.12123 32.5536 6.66836C33.1437 7.21549 33.4768 7.95734 33.48 8.73185V14.6517C33.4768 15.4262 33.1437 16.1681 32.5536 16.7152C31.9634 17.2623 31.1641 17.5703 30.3303 17.5718H23.9635" stroke="black" stroke-width="1.69349" stroke-linecap="round" stroke-linejoin="round"/>
<path d="M10.195 53.1476C12.395 53.1476 14.1785 51.4911 14.1785 49.4477C14.1785 47.4043 12.395 45.7478 10.195 45.7478C7.99495 45.7478 6.21148 47.4043 6.21148 49.4477C6.21148 51.4911 7.99495 53.1476 10.195 53.1476Z" stroke="black" stroke-width="1.69349" stroke-linecap="round" stroke-linejoin="round"/>
<path d="M5.53684 5.07338e-06C5.53684 5.07338e-06 5.34075 15.6307 20.1517 13.7238C22.2107 -0.0626075 5.53684 5.07338e-06 5.53684 5.07338e-06Z" fill="#A3CB38"/>
<path d="M5.66598 2.21423C6.1317 6.12474 8.47866 15.1753 20.1706 13.6725L5.66598 2.21423Z" fill="#C4E538"/>
<path d="M20.1525 13.5875L7.80487 0.114155C11.9963 0.541066 21.7763 2.70979 20.1525 13.5875Z" fill="#A2E54C"/>
<path d="M0.84909 35.2174H27.8116" stroke="#A2E54C" stroke-width="1.69349" stroke-linecap="round" stroke-linejoin="round"/>
<path d="M37.4625 36.3558C37.4625 38.1674 36.6878 39.9048 35.3087 41.1858C33.9297 42.4668 32.0593 43.1864 30.1091 43.1864H8.35527C6.40503 43.1864 4.53465 42.4668 3.15562 41.1858C1.77659 39.9048 1.00187 38.1674 1.00187 36.3558V24.4023C1.00187 22.5907 1.77659 20.8533 3.15562 19.5723C4.53465 18.2914 6.40503 17.5717 8.35527 17.5717H30.1091" stroke="black" stroke-width="1.69349" stroke-linecap="round" stroke-linejoin="round"/>
<path d="M34.8592 47.2734C35.3229 47.8651 35.5873 48.5711 35.6189 49.3023C35.6506 50.0335 35.4481 50.757 35.037 51.3813C34.6259 52.0056 34.0248 52.5027 33.3096 52.8096C32.5944 53.1166 31.7972 53.2197 31.0189 53.1058C30.2406 52.992 29.5162 52.6663 28.9372 52.17C28.3581 51.6738 27.9506 51.0292 27.766 50.3177C27.5814 49.6063 27.6281 48.86 27.9002 48.1733C28.1723 47.4865 28.6575 46.8901 29.2945 46.4595C29.7172 46.1728 30.1966 45.9665 30.7052 45.8523C31.2139 45.738 31.7418 45.7182 32.2588 45.7938C32.7757 45.8694 33.2715 46.039 33.7177 46.2929C34.164 46.5468 34.5519 46.88 34.8592 47.2734Z" stroke="black" stroke-width="1.69349" stroke-linecap="round" stroke-linejoin="round"/>
<path d="M15.3904 9.17031L22.3339 15.6195" stroke="#A3CB38" stroke-width="1.69349" stroke-linecap="round" stroke-linejoin="round"/>
</svg>
