<svg width="111" height="108" viewBox="0 0 111 108" fill="none" xmlns="http://www.w3.org/2000/svg">
<path d="M9.96098 0L92.5491 0C97.2376 0 101.734 1.82487 105.049 5.07314C108.365 8.3214 110.227 12.727 110.227 17.3208L110.227 90.6792C110.227 95.273 108.365 99.6786 105.049 102.927C101.734 106.175 97.2376 108 92.5491 108L9.71244 108C9.70795 105.416 8.70299 102.929 6.90038 101.042C5.09776 99.1552 2.63172 98.0086 -2.28882e-05 97.8337L-2.28882e-05 10.1887C2.63952 10.1351 5.15427 9.07755 7.01215 7.23971C8.87004 5.40186 9.92532 2.92793 9.95473 0.341324C9.95473 0.229248 9.96098 0.115135 9.96098 0.00203705V0Z" fill="#D6C533"/>
</svg>
