<svg width="24" height="24" viewBox="0 0 24 24" fill="none" xmlns="http://www.w3.org/2000/svg">
<g clip-path="url(#clip0_108_32767)">
<path d="M6.49927 19H4.49927C4.22327 19 3.99927 18.776 3.99927 18.5C3.99927 18.224 4.22327 18 4.49927 18H6.49927C6.77527 18 6.99927 18.224 6.99927 18.5C6.99927 18.776 6.77527 19 6.49927 19Z" fill="#55AB60"/>
<path d="M22.7505 19H21.5005C21.2245 19 21.0005 18.776 21.0005 18.5C21.0005 18.224 21.2245 18 21.5005 18H22.3355L23.0095 14.408C23.0005 12.57 21.4305 11 19.5005 11H16.2175L14.6265 18H17.5005C17.7765 18 18.0005 18.224 18.0005 18.5C18.0005 18.776 17.7765 19 17.5005 19H14.0005C13.8485 19 13.7045 18.931 13.6095 18.812C13.5145 18.694 13.4785 18.538 13.5125 18.39L15.3305 10.39C15.3825 10.161 15.5845 9.99997 15.8185 9.99997H19.5005C21.9815 9.99997 24.0005 12.019 24.0005 14.5L23.2415 18.592C23.1975 18.829 22.9915 19 22.7505 19Z" fill="#55AB60"/>
<path d="M19.5007 21C18.1227 21 17.0007 19.879 17.0007 18.5C17.0007 17.121 18.1227 16 19.5007 16C20.8787 16 22.0007 17.121 22.0007 18.5C22.0007 19.879 20.8787 21 19.5007 21ZM19.5007 17C18.6737 17 18.0007 17.673 18.0007 18.5C18.0007 19.327 18.6737 20 19.5007 20C20.3277 20 21.0007 19.327 21.0007 18.5C21.0007 17.673 20.3277 17 19.5007 17Z" fill="#55AB60"/>
<path d="M8.5 21C7.122 21 6 19.879 6 18.5C6 17.121 7.122 16 8.5 16C9.878 16 11 17.121 11 18.5C11 19.879 9.878 21 8.5 21ZM8.5 17C7.673 17 7 17.673 7 18.5C7 19.327 7.673 20 8.5 20C9.327 20 10 19.327 10 18.5C10 17.673 9.327 17 8.5 17Z" fill="#55AB60"/>
<path d="M6.50073 10H2.50073C2.22473 10 2.00073 9.776 2.00073 9.5C2.00073 9.224 2.22473 9 2.50073 9H6.50073C6.77673 9 7.00073 9.224 7.00073 9.5C7.00073 9.776 6.77673 10 6.50073 10Z" fill="#55AB60"/>
<path d="M6.49927 13H1.49927C1.22327 13 0.999268 12.776 0.999268 12.5C0.999268 12.224 1.22327 12 1.49927 12H6.49927C6.77527 12 6.99927 12.224 6.99927 12.5C6.99927 12.776 6.77527 13 6.49927 13Z" fill="#55AB60"/>
<path d="M6.5 16H0.5C0.224 16 0 15.776 0 15.5C0 15.224 0.224 15 0.5 15H6.5C6.776 15 7 15.224 7 15.5C7 15.776 6.776 16 6.5 16Z" fill="#55AB60"/>
<path d="M13.9993 19H10.4993C10.2233 19 9.99927 18.776 9.99927 18.5C9.99927 18.224 10.2233 18 10.4993 18H13.6003L15.8723 7.99997H4.49927C4.22327 7.99997 3.99927 7.77597 3.99927 7.49997C3.99927 7.22397 4.22327 6.99997 4.49927 6.99997H16.4993C16.6513 6.99997 16.7953 7.06897 16.8903 7.18797C16.9853 7.30597 17.0213 7.46197 16.9873 7.60997L14.4873 18.61C14.4353 18.839 14.2323 19 13.9993 19Z" fill="#55AB60"/>
</g>
<defs>
<clipPath id="clip0_108_32767">
<rect width="24" height="24" fill="white"/>
</clipPath>
</defs>
</svg>
