<svg width="12" height="86" viewBox="0 0 12 86" fill="none" xmlns="http://www.w3.org/2000/svg">
<path d="M8.04434 5.37771L10.6895 2.83945C11.0072 2.52779 11.1841 2.10843 11.1816 1.6724C11.1791 1.23638 10.9975 0.818896 10.6762 0.510578C10.3549 0.20226 9.91984 0.0279969 9.46546 0.0256143C9.01108 0.0232318 8.57406 0.192922 8.24927 0.497852L5.60414 3.0361L2.95902 0.497852C2.79943 0.341332 2.60908 0.216742 2.39898 0.131289C2.18888 0.0458358 1.9632 0.00122125 1.73501 2.47236e-05C1.50682 -0.00117181 1.28065 0.0410736 1.06959 0.124318C0.858526 0.207563 0.666767 0.330151 0.505409 0.484988C0.344052 0.639826 0.216302 0.823837 0.129553 1.02637C0.042803 1.2289 -0.00122115 1.44594 2.57646e-05 1.66491C0.00127267 1.88388 0.0477657 2.10044 0.136817 2.30205C0.225868 2.50366 0.355708 2.68632 0.518819 2.83945L3.16394 5.37771L0.518819 7.91595C0.201049 8.22762 0.0242099 8.64699 0.0266928 9.08301C0.0291757 9.51903 0.21078 9.93652 0.53208 10.2448C0.85338 10.5532 1.28844 10.7274 1.74282 10.7298C2.1972 10.7322 2.63422 10.5625 2.95902 10.2576L5.60414 7.71931L8.24927 10.2576C8.57406 10.5625 9.01108 10.7322 9.46546 10.7298C9.91984 10.7274 10.3549 10.5532 10.6762 10.2448C10.9975 9.93652 11.1791 9.51903 11.1816 9.08301C11.1841 8.64699 11.0072 8.22762 10.6895 7.91595L8.04434 5.37771Z" fill="#A4E0A4"/>
<path d="M8.04434 80.6479L10.6895 78.1096C11.0072 77.798 11.1841 77.3786 11.1816 76.9426C11.1791 76.5066 10.9975 76.0891 10.6762 75.7807C10.3549 75.4724 9.91984 75.2982 9.46546 75.2958C9.01108 75.2934 8.57406 75.4631 8.24927 75.768L5.60414 78.3063L2.95902 75.768C2.79943 75.6115 2.60908 75.4869 2.39898 75.4015C2.18888 75.316 1.9632 75.2714 1.73501 75.2702C1.50682 75.269 1.28065 75.3112 1.06959 75.3945C0.858526 75.4777 0.666767 75.6003 0.505409 75.7552C0.344052 75.91 0.216302 76.094 0.129553 76.2965C0.042803 76.4991 -0.00122115 76.7161 2.57646e-05 76.9351C0.00127267 77.1541 0.0477657 77.3706 0.136817 77.5722C0.225868 77.7738 0.355708 77.9565 0.518819 78.1096L3.16394 80.6479L0.518819 83.1861C0.201049 83.4978 0.0242099 83.9172 0.0266928 84.3532C0.0291757 84.7892 0.21078 85.2067 0.53208 85.515C0.85338 85.8233 1.28844 85.9976 1.74282 86C2.1972 86.0024 2.63422 85.8327 2.95902 85.5277L5.60414 82.9895L8.24927 85.5277C8.57406 85.8327 9.01108 86.0024 9.46546 86C9.91984 85.9976 10.3549 85.8233 10.6762 85.515C10.9975 85.2067 11.1791 84.7892 11.1816 84.3532C11.1841 83.9172 11.0072 83.4978 10.6895 83.1861L8.04434 80.6479Z" fill="#A4E0A4"/>
</svg>
