<svg width="2" height="2" viewBox="0 0 2 2" fill="none" xmlns="http://www.w3.org/2000/svg">
<path d="M1.8931 1.00001C1.90215 1.12795 1.88441 1.25636 1.841 1.37725C1.79759 1.49815 1.72943 1.60895 1.64076 1.70274C1.55208 1.79654 1.44479 1.87133 1.32556 1.92247C1.20633 1.97361 1.07771 2 0.947696 2C0.817683 2 0.689059 1.97361 0.569828 1.92247C0.450597 1.87133 0.343308 1.79654 0.254633 1.70274C0.165959 1.60895 0.0977979 1.49815 0.0543872 1.37725C0.0109764 1.25636 -0.0067525 1.12795 0.00230043 1.00001C-0.0067525 0.872063 0.0109764 0.743646 0.0543872 0.62275C0.0977979 0.501853 0.165959 0.391058 0.254633 0.297262C0.343308 0.203466 0.450597 0.128671 0.569828 0.0775321C0.689059 0.0263933 0.817683 0 0.947696 0C1.07771 0 1.20633 0.0263933 1.32556 0.0775321C1.44479 0.128671 1.55208 0.203466 1.64076 0.297262C1.72943 0.391058 1.79759 0.501853 1.841 0.62275C1.88441 0.743646 1.90215 0.872063 1.8931 1.00001Z" fill="#55AB60"/>
</svg>
