<svg width="38" height="7" viewBox="0 0 38 7" fill="none" xmlns="http://www.w3.org/2000/svg">
<path d="M37.1528 6.40288C37.2272 6.39422 37.301 6.38089 37.3736 6.36296C37.476 6.33088 37.5702 6.27772 37.6502 6.20701C37.7301 6.13631 37.7939 6.04965 37.8373 5.95279C37.895 5.80619 37.9177 5.64846 37.9036 5.49182C37.9036 5.31396 37.9036 5.12885 37.9036 4.91469C37.9036 4.49727 37.9036 4.01451 37.9036 3.46279V1.15789C37.9211 0.991021 37.8837 0.823005 37.7969 0.678762C37.7039 0.533529 37.5618 0.425498 37.3957 0.373864C37.2126 0.340314 37.0259 0.329342 36.84 0.341198H31.5444L0.870635 0.228676C0.705645 0.22906 0.546406 0.288528 0.422532 0.396018C0.298658 0.503509 0.218578 0.651704 0.197174 0.813061C0.197174 1.17604 0.197174 1.53901 0.197174 1.90199C0.197174 2.62794 0.197174 3.35389 0.197174 4.07984C0.197174 4.44282 0.197174 4.80579 0.197174 5.16877C0.18347 5.3372 0.190885 5.50666 0.219254 5.67331C0.263327 5.82141 0.358314 5.94975 0.487901 6.03628C0.622993 6.12329 0.783329 6.16409 0.944236 6.15243H2.54508L10.6892 6.19599L24.4785 6.27947L33.7745 6.35207L36.3027 6.3811H36.9615C37.1087 6.3811 37.1823 6.3811 37.1823 6.3811C37.1823 6.3811 37.1087 6.3811 36.9615 6.3811H36.3027H33.7745H24.4785L10.6892 6.34118L2.54508 6.30851H0.944236C0.745021 6.32177 0.546981 6.26942 0.38118 6.15969C0.213725 6.04528 0.0915136 5.8773 0.0352487 5.6842C0.00226447 5.49976 -0.00762389 5.31202 0.00580716 5.12521C0.00580716 4.76224 0.00580716 4.39926 0.00580716 4.03628C0.00580716 3.31033 0.00580716 2.58438 0.00580716 1.85843C0.00580716 1.49546 0.00580716 1.13249 0.00580716 0.751362C0.0318242 0.544116 0.133701 0.353382 0.292283 0.215018C0.450864 0.076654 0.655226 0.000187109 0.866952 0L31.5407 0.166966L36.8364 0.206899C37.0335 0.194967 37.2315 0.208383 37.4252 0.246821C37.6164 0.308439 37.7776 0.437757 37.8778 0.609796C37.973 0.769671 38.0143 0.955243 37.9956 1.13974C37.9956 1.31034 37.9956 1.48094 37.9956 1.64428C37.9956 2.30126 37.9956 2.9038 37.9956 3.45916C37.9956 4.01451 37.9956 4.48275 37.9956 4.91106C37.9956 5.11795 37.9956 5.31033 37.9956 5.48819C38.0097 5.65054 37.9832 5.81382 37.9183 5.96368C37.8705 6.06384 37.8014 6.15265 37.7157 6.22406C37.63 6.29547 37.5296 6.34781 37.4215 6.37748C37.3352 6.40661 37.2432 6.41531 37.1528 6.40288Z" fill="#E0E0E0"/>
</svg>
