<svg width="15" height="18" viewBox="0 0 15 18" fill="none" xmlns="http://www.w3.org/2000/svg">
<path d="M13.2973 2.41931H1.66861C1.17459 2.41931 0.774099 2.7876 0.774099 3.2419V16.4033C0.774099 16.8576 1.17459 17.2259 1.66861 17.2259H13.2973C13.7913 17.2259 14.1918 16.8576 14.1918 16.4033V3.2419C14.1918 2.7876 13.7913 2.41931 13.2973 2.41931Z" stroke="#55AB60" stroke-width="1.5" stroke-linejoin="round"/>
<path d="M4.80007 0.774099V3.24186V0.774099Z" fill="white"/>
<path d="M4.80007 0.774099V3.24186" stroke="#55AB60" stroke-width="1.5" stroke-linecap="round" stroke-linejoin="round"/>
<path d="M10.1662 0.774099V3.24186V0.774099Z" fill="white"/>
<path d="M10.1662 0.774099V3.24186" stroke="#55AB60" stroke-width="1.5" stroke-linecap="round" stroke-linejoin="round"/>
<path d="M3.90439 6.94352H11.0605H3.90439Z" fill="white"/>
<path d="M3.90439 6.94352H11.0605" stroke="#55AB60" stroke-width="1.5" stroke-linecap="round" stroke-linejoin="round"/>
<path d="M3.90439 10.2339H9.27147H3.90439Z" fill="white"/>
<path d="M3.90439 10.2339H9.27147" stroke="#55AB60" stroke-width="1.5" stroke-linecap="round" stroke-linejoin="round"/>
<path d="M3.90439 13.5242H7.48244H3.90439Z" fill="white"/>
<path d="M3.90439 13.5242H7.48244" stroke="#55AB60" stroke-width="1.5" stroke-linecap="round" stroke-linejoin="round"/>
</svg>
