<svg width="19" height="22" viewBox="0 0 19 22" fill="none" xmlns="http://www.w3.org/2000/svg">
<path d="M9.47811 2.4952e-05H9.30494L8.80386 0.0363668C8.5327 0.0524355 8.26304 0.0876572 7.99698 0.141755C7.82465 0.165621 7.65371 0.198368 7.48485 0.239868L6.91378 0.396131C5.94177 0.690258 5.02469 1.13823 4.19839 1.72253C3.10666 2.50411 2.19506 3.50479 1.52353 4.65877C1.12883 5.32397 0.814737 6.0326 0.587698 6.7701C0.349131 7.57165 0.211774 8.39918 0.178735 9.23392C0.156777 9.67243 0.16416 10.1119 0.20084 10.5494C0.20084 10.7711 0.263474 10.9928 0.292949 11.2181C0.317741 11.4452 0.360862 11.67 0.421902 11.8904C0.753209 13.3486 1.42544 14.7102 2.38498 15.8668C3.34451 17.0233 4.56479 17.9426 5.94847 18.5514C6.94992 18.9776 8.02331 19.2155 9.11335 19.2528C10.2392 19.3138 11.3662 19.1545 12.4293 18.784L12.7535 18.6641H12.7977L12.8346 18.6859L17.4806 21.0116L17.3443 21.1279C16.8469 19.6089 16.3679 18.1371 15.9037 16.7235V16.669L15.9442 16.629C17.0712 15.5094 17.9079 14.1382 18.3832 12.6317C18.8138 11.2544 18.9394 9.80199 18.7517 8.37268C18.5847 7.10242 18.1706 5.87592 17.5322 4.76052C16.9818 3.80236 16.2719 2.94242 15.4321 2.21674C14.7392 1.64237 13.9723 1.16093 13.1514 0.784962C12.5303 0.52073 11.8834 0.31982 11.2208 0.185361L10.4839 0.0654392L9.9497 0.0254653L9.62548 0.00366246H9.51495C9.55168 -0.000357848 9.58875 -0.000357848 9.62548 0.00366246H9.95339L10.4876 0.0254653L11.2245 0.130848C11.8953 0.255464 12.551 0.449127 13.1809 0.708652C14.0159 1.08015 14.7966 1.56048 15.5021 2.1368C16.3573 2.85925 17.0823 3.71933 17.6464 4.68057C18.3029 5.80796 18.7297 7.05107 18.9027 8.33997C19.1061 9.79136 18.9892 11.2689 18.5601 12.6717C18.0817 14.2095 17.232 15.6099 16.0842 16.7526L16.1063 16.6581C16.5705 18.0717 17.0532 19.5435 17.5543 21.0588L17.6243 21.2805L17.4143 21.1751L12.7683 18.853H12.8493L12.5177 18.9729C11.4341 19.349 10.2863 19.512 9.13914 19.4526C8.0256 19.4108 6.92976 19.1643 5.90794 18.7258C3.9588 17.9025 2.33712 16.4715 1.29142 14.6522C0.810204 13.8119 0.458775 12.9056 0.248736 11.963C0.191218 11.737 0.14815 11.5076 0.119783 11.2762C0.0903081 11.0473 0.042412 10.822 0.0313589 10.5967C-0.0683559 9.30364 0.0702028 8.0035 0.440325 6.7592C0.673017 6.01155 0.995868 5.29416 1.40195 4.62243C2.0895 3.45797 3.02009 2.45092 4.13207 1.66802C4.97198 1.08222 5.90446 0.637705 6.89167 0.35252L7.47012 0.207163C7.64037 0.168213 7.81253 0.13789 7.98593 0.116314C8.25476 0.0672184 8.52693 0.038063 8.80018 0.0290973L9.30494 0.0109319C9.36233 0.00330758 9.4202 -0.00034043 9.47811 2.4952e-05Z" fill="#55AB60"/>
<path d="M11.5784 8.47437H10.8968L9.42302 6.43208V5.09115C9.42302 5.09115 8.36929 5.02573 8.49455 6.78094C8.61982 8.53615 8.49455 8.08917 8.49455 8.08917C8.49455 8.08917 6.25814 8.08917 6.07392 8.28904C5.8897 8.48891 5.87864 10.6184 5.85285 11.8067C5.83873 12.0932 5.92207 12.3761 6.08962 12.6105C6.25717 12.8449 6.49934 13.0173 6.77763 13.1004C6.85564 13.1217 6.93617 13.1327 7.01712 13.1331C7.57714 13.1331 10.4252 12.6861 10.4252 12.6861H11.6005L11.5784 8.47437Z" fill="#55AB60"/>
<path d="M13.5273 8.11464L13.1072 12.708H11.943V8.20913L13.5273 8.11464Z" fill="#55AB60"/>
</svg>
