<svg width="24" height="24" viewBox="0 0 24 24" fill="none" xmlns="http://www.w3.org/2000/svg">
<path d="M21.0872 4.85934L12.067 0.052884C11.9331 -0.0185362 11.7728 -0.0175338 11.6399 0.05539L2.86929 4.86185C2.72544 4.94078 2.63623 5.09164 2.63623 5.25578V11.5342C2.64149 16.6953 5.69928 21.3644 10.4281 23.4321L11.6455 23.9626C11.7592 24.0122 11.8888 24.0125 12.0028 23.9631L13.3746 23.3707C18.1911 21.3479 21.3245 16.6337 21.325 11.4097V5.25578C21.325 5.08989 21.2336 4.93728 21.0872 4.85934ZM20.4269 11.4097C20.4259 16.2735 17.5077 20.6623 13.023 22.5445L13.02 22.546L11.8254 23.0617L10.7874 22.6089C6.38567 20.6843 3.53913 16.3384 3.53412 11.5342V5.52167L11.8587 0.959294L20.4269 5.52493V11.4097Z" fill="#55AB60"/>
<path d="M8.54566 11.243C8.38452 11.0543 8.1011 11.032 7.9124 11.1931C7.7237 11.354 7.7014 11.6377 7.86253 11.8261L10.2347 14.604C10.3931 14.7894 10.6705 14.8148 10.8594 14.6609L16.3841 10.1662C16.5765 10.0098 16.6056 9.72688 16.449 9.53442C16.2926 9.34221 16.0097 9.31289 15.8172 9.46951L10.6329 13.6871L8.54566 11.243Z" fill="#55AB60"/>
</svg>
