<svg width="17" height="17" viewBox="0 0 17 17" fill="none" xmlns="http://www.w3.org/2000/svg">
<path d="M6.69839 16H9.95461M14.0249 16V2.66667C14.0249 2.22464 13.8534 1.80072 13.548 1.48816C13.2427 1.17559 12.8286 1 12.3968 1H4.25622C3.82442 1 3.4103 1.17559 3.10497 1.48816C2.79964 1.80072 2.62811 2.22464 2.62811 2.66667V16H14.0249ZM14.0249 16H15.653H14.0249ZM14.0249 16H9.95461H14.0249ZM2.62811 16H1H2.62811ZM2.62811 16H6.69839H2.62811ZM5.88433 4.33333H6.69839H5.88433ZM5.88433 7.66667H6.69839H5.88433ZM9.95461 4.33333H10.7687H9.95461ZM9.95461 7.66667H10.7687H9.95461ZM6.69839 16V11.8333C6.69839 11.6123 6.78415 11.4004 6.93682 11.2441C7.08948 11.0878 7.29654 11 7.51244 11H9.14055C9.35645 11 9.56351 11.0878 9.71618 11.2441C9.86884 11.4004 9.95461 11.6123 9.95461 11.8333V16H6.69839Z" stroke="black" stroke-width="2" stroke-linecap="round" stroke-linejoin="round"/>
</svg>
